<?xml version="1.0" encoding="UTF-8"?>
<!DOCTYPE svg PUBLIC "-//W3C//DTD SVG 1.1//EN" "http://www.w3.org/Graphics/SVG/1.1/DTD/svg11.dtd">
<svg xmlns="http://www.w3.org/2000/svg" xml:space="preserve" width="198px" height="70px" version="1.1" shape-rendering="geometricPrecision" text-rendering="geometricPrecision" image-rendering="optimizeQuality" fill-rule="evenodd" clip-rule="evenodd" viewBox="0 0 100000 35314"  xmlns:xlink="http://www.w3.org/1999/xlink">
	<g>
		<g>
			<path fill="#009DF0" fill-rule="nonzero" d="M29744 0l-24070 0c-3135,0 -5674,2532 -5674,5657l0 24001c0,3123 2539,5656 5674,5656l24070 0c3135,0 5672,-2533 5672,-5656l0 -24001c0,-3125 -2537,-5657 -5672,-5657z"/>
			<path fill="white" fill-rule="nonzero" d="M29159 22175c-1417,-474 -3318,-1198 -5437,-1962 1273,-2205 2288,-4716 2956,-7444l-6980 0 0 -2508 8551 0 0 -1399 -8551 0 0 -4180 -3490 0c-613,0 -613,602 -613,602l0 3578 -8649 0 0 1399 8649 0 0 2508 -7141 0 0 1398 13850 0c-508,1741 -1187,3377 -1995,4861 -4494,-1478 -9289,-2677 -12302,-1939 -1927,474 -3167,1318 -3897,2204 -3346,4058 -946,10225 6121,10225 4177,0 8201,-2324 11321,-6151 4652,2231 13864,6059 13864,6059l0 -5457c0,0 -1156,-92 -6257,-1794zm-19589 4982l0 0c-5509,0 -7138,-4328 -4416,-6695 909,-800 2569,-1190 3455,-1279 3273,-322 6302,923 9877,2664 -2513,3268 -5714,5310 -8916,5310z"/>
			<path fill="#3E3939" fill-rule="nonzero" d="M85825 5536l10138 0 0 2006 3620 0 0 -2006 0 -371c0,-5 -1,-8 -1,-14 0,-534 -419,-968 -938,-976l-5859 0 0 -1871 -3790 0 0 1871 -6790 0 0 680 0 681 0 2006 3620 0 0 -2006z"/>
			<polygon fill="#3E3939" fill-rule="nonzero" points="63891,2477 60179,11256 63026,11256 63026,21704 66141,21704 66141,7846 65013,7846 67358,2477 "/>
			<path fill="#3E3939" fill-rule="nonzero" d="M99999 21225l-1138 -3843c-75,-246 -297,-423 -562,-423l-3014 0 874 2952 -3544 0 0 -5717 6960 0 0 -1362 -6960 0 0 -2690 6960 0 0 -1361 -6960 0 -3451 0 -6959 0 0 1361 6959 0 0 2690 -6959 0 0 1362 6959 0 0 5717 -6959 0 0 1360 17794 0 -14 -46 14 0z"/>
			<path fill="#3E3939" fill-rule="nonzero" d="M71855 9673c-118,-241 -360,-407 -640,-409l-2697 0 2100 6613 3189 0 -1952 -6204z"/>
			<path fill="#3E3939" fill-rule="nonzero" d="M78679 2636l-3236 0 0 3382 -7976 0 0 1361 7976 0 0 12157c-28,278 -248,495 -522,509l-1645 0 0 1411 4194 0c663,-29 1194,-579 1209,-1263l0 -148 0 -12666 1313 0 0 -1361 -1313 0 0 -3382z"/>
			<path fill="#3E3939" fill-rule="nonzero" d="M58485 8797l-6217 0 0 -2228 7209 0 0 -1388 -7209 0 0 -2822 -3213 0 -1 1c-351,0 -637,294 -637,659l0 0 0 2162 -7157 0 0 1388 7157 0 0 2228 -6040 0 0 1387 12033 0c0,0 -667,2604 -3967,5402 -2958,-2240 -3946,-4023 -3946,-4023l-3228 0c1305,2264 3162,4077 5160,5514 -1835,1193 -4216,2344 -7294,3264l0 1661c0,0 4749,-896 9339,-3600 4596,2684 9213,3600 9213,3600l0 -1572c-2955,-1076 -5296,-2259 -7133,-3400 2662,-1974 4995,-4651 5931,-8233z"/>
			<path fill="#3E3939" fill-rule="nonzero" d="M48283 30983l537 1623 1506 0 -2967 -8057 -1151 0 -2958 8057 1508 0 561 -1623 2964 0zm-1458 -4358l0 0 1114 3343 -2269 0 1155 -3343z"/>
			<polygon fill="#3E3939" fill-rule="nonzero" points="55081,24549 55081,32606 59960,32606 59960,31509 56530,31509 56530,24549 "/>
			<polygon fill="#3E3939" fill-rule="nonzero" points="65276,24549 65276,32606 66727,32606 66727,24549 "/>
			<path fill="#3E3939" fill-rule="nonzero" d="M75732 24549l-3132 0 0 8057 1450 0 0 -3098 1682 0c1563,0 2654,-1020 2654,-2480 0,-1460 -1091,-2479 -2654,-2479zm-81 3851l0 0 -1601 0 0 -2756 1601 0c804,0 1285,704 1285,1384 0,666 -450,1372 -1285,1372z"/>
			<path fill="#3E3939" fill-rule="nonzero" d="M86898 30983l538 1623 1506 0 -2969 -8057 -1151 0 -2956 8057 1508 0 560 -1623 2964 0zm-1458 -4358l0 0 1115 3343 -2269 0 1154 -3343z"/>
			<polygon fill="#3E3939" fill-rule="nonzero" points="97015,24549 95434,27981 93829,24549 92263,24549 94703,29296 94703,32606 96141,32606 96141,29296 96151,29278 98582,24549 "/>
		</g>
	</g>
</svg>