<?xml version="1.0" encoding="UTF-8"?>
<!DOCTYPE svg PUBLIC "-//W3C//DTD SVG 1.1//EN" "http://www.w3.org/Graphics/SVG/1.1/DTD/svg11.dtd">
<svg xmlns="http://www.w3.org/2000/svg" xml:space="preserve" width="70px" height="70px" version="1.1" shape-rendering="geometricPrecision" text-rendering="geometricPrecision" image-rendering="optimizeQuality" fill-rule="evenodd" clip-rule="evenodd" viewBox="0 0 100001 99921"  xmlns:xlink="http://www.w3.org/1999/xlink">
	<g>
		<g>
			<path fill="#006FCF" d="M97423 54459l1636 0 861 0 0 -54459 -99920 0 0 38425 3181 -7434 7149 0 1582 3568 0 -3568 8763 0 1043 3045 1025 -3045 37663 0 0 764 0 602c328,-220 674,-411 1037,-577 308,-142 627,-263 955,-366 418,-131 853,-230 1299,-300 525,-83 1066,-123 1620,-123l11540 0 1564 3531 0 -3531 6980 0 1783 2792 0 -2792 8008 0 0 17461 -7503 0 0 0 -1631 -2591 0 2591 -10800 0 -958 -2507 -1783 0 -943 2507 -6442 0c-588,0 -1207,-49 -1827,-161 -381,-70 -763,-163 -1140,-285 -303,-98 -604,-213 -898,-351 -294,-137 -583,-294 -861,-473l0 711 0 559 -10765 0 -1951 -2541 0 2541 -38958 0 -959 -2507 -1782 0 -943 2507 -5048 0 0 51469 99920 0 0 -29070c-390,239 -814,443 -1266,607 -814,296 -1721,461 -2690,461l-33641 0 -1952 -2539 0 2539 -7754 0 0 -4431c-1112,413 -2369,663 -3751,663l117 0 0 3768 -11118 0 -1598 -2271 -1547 2271 -17764 0 0 -17460 17831 0 1564 2237 1582 -2237 59490 0z"/>
			<path fill="white" d="M0 38425l0 10027 5048 0 943 -2507 1782 0 959 2507 38958 0 0 -2541 1951 2541 10765 0 0 -559 0 -711c278,179 567,336 861,473 294,138 595,253 898,351 377,122 759,215 1140,285 620,112 1239,161 1827,161l6442 0 943 -2507 1783 0 958 2507 10800 0 0 -2591 1631 2591 0 0 7503 0 0 -17461 -8008 0 0 2792 -1783 -2792 -6980 0 0 3531 -1564 -3531 -11540 0c-554,0 -1095,40 -1620,123 -446,70 -881,169 -1299,300 -328,103 -647,224 -955,366 -362,166 -709,357 -1037,577l0 -602 0 -764 -37663 0 -1025 3045 -1043 -3045 -8763 0 0 3568 -1582 -3568 -7149 0 -3181 7434zm99920 32426l0 -16392 -861 0 -1636 0 -59490 0 -1582 2237 -1564 -2237 -17831 0 0 17460 17764 0 1547 -2271 1598 2271 11118 0 0 -3768 -117 0c1382,0 2639,-250 3751,-663l0 4431 7754 0 0 -2539 1952 2539 33641 0c969,0 1876,-165 2690,-461 452,-164 876,-368 1266,-607z"/>
			<path fill="#006FCF" d="M29118 59690l0 -2388 -9419 0 0 11774 9419 0 0 -2372 -6593 0 0 -2371 6442 0 0 -2355 -6442 0 0 -2288 6593 0 0 0zm-18468 -14081l3180 0 -5031 -11775 -3717 0 -5047 11775 3012 0 992 -2523 5601 0 1010 2523 0 0zm-4676 -7385l858 -2204 857 2204 1043 2607 -3784 0 1026 -2607 0 0zm11253 -655l-68 -3180 3264 11220 2557 0 3263 -11152 -67 3094 0 8058 2741 0 0 -11775 -4978 0 -2237 8343 -2255 -8343 -4962 0 0 11775 2742 0 0 -8040 0 0zm23432 -1347l0 -2388 -9420 0 0 11775 9420 0 0 -2406 -6595 0 0 -2338 6443 0 0 -2355 -6443 0 0 -2288 6595 0 0 0zm4894 5148l1329 0 3516 4239 3515 0 -3919 -4340c2002,-371 3196,-1816 3196,-3700 0,-2204 -1565,-3735 -4071,-3735l-6391 0 0 11775 2825 0 0 -4239 0 0zm3314 -5131c1009,0 1548,657 1548,1463 0,808 -539,1447 -1548,1447l-3314 0 0 -2910 3314 0 0 0zm5938 9370l2825 0 0 -5182 0 -6593 -2825 0 0 6525 0 5250 0 0zm10042 0l151 0 1161 -2507 -859 0c-1933,0 -3078,-1210 -3078,-3296l0 -169c0,-1867 1027,-3263 3045,-3263l3061 0 0 -2540 -3296 0c-3634,0 -5619,2439 -5619,5786l0 202c0,3499 2036,5770 5434,5787l0 0zm12329 0l3179 0 -5028 -11775 -3719 0 -5045 11775 3009 0 994 -2523 5600 0 1010 2523 0 0zm-4676 -7385l858 -2204 857 2204 1044 2607 -3785 0 1026 -2607 0 0zm11269 337l-33 -976 589 976 4508 7048 3297 0 0 -11775 -2759 0 0 6813 34 874 -522 -874 -4406 -6813 -3466 0 0 11775 2758 0 0 -7048 0 0zm-44844 30515l3532 0 -4726 -5937 4692 -5837 -3431 0 -2893 3734 -2877 -3734 -3532 0 4710 5887 -4693 5887 3431 0 2894 -3784 2893 3784 0 0zm4155 -11774l0 11774 2825 0 0 -3886 3549 0c2574,0 4172,-1682 4172,-3952 0,-2338 -1564,-3936 -4070,-3936l-6476 0 0 0zm7703 3953c0,790 -504,1447 -1496,1447l-3382 0 0 -2894 3382 0c992,0 1496,639 1496,1447l0 0zm7200 3582l1329 0 3515 4239 3516 0 -3919 -4339c2002,-370 3195,-1817 3195,-3701 0,-2204 -1564,-3734 -4070,-3734l-6392 0 0 11774 2826 0 0 -4239 0 0zm3314 -5129c1009,0 1548,655 1548,1463 0,807 -539,1447 -1548,1447l-3314 0 0 -2910 3314 0 0 0zm15778 -18l0 -2388 -9420 0 0 11774 9420 0 0 -2372 -6595 0 0 -2371 6443 0 0 -2355 -6443 0 0 -2288 6595 0 0 0zm7754 7031l-6038 0 0 2355 5954 0c2540,0 4055,-1547 4055,-3751 0,-2102 -1363,-3330 -3651,-3330l-2725 0c-673,0 -1145,-438 -1145,-1128 0,-706 472,-1177 1145,-1177l5113 0 1043 -2388 -6072 0c-2540,0 -4054,1547 -4054,3667 0,2170 1429,3415 3668,3415l2707 0c673,0 1161,437 1161,1144 0,723 -488,1193 -1161,1193l0 0zm11202 0l-6039 0 0 2355 5956 0c2540,0 4053,-1547 4053,-3751 0,-2102 -1363,-3330 -3649,-3330l-2725 0c-674,0 -1145,-438 -1145,-1128 0,-706 471,-1177 1145,-1177l5113 0 1043 -2388 -6072 0c-2541,0 -4054,1547 -4054,3667 0,2170 1429,3415 3667,3415l2707 0c674,0 1161,437 1161,1144 0,723 -487,1193 -1161,1193l0 0z"/>
		</g>
	</g>
</svg>