<?xml version="1.0" encoding="UTF-8"?>
<!DOCTYPE svg PUBLIC "-//W3C//DTD SVG 1.1//EN" "http://www.w3.org/Graphics/SVG/1.1/DTD/svg11.dtd">
<svg xmlns="http://www.w3.org/2000/svg" xml:space="preserve" width="109px" height="70px" version="1.1" shape-rendering="geometricPrecision" text-rendering="geometricPrecision" image-rendering="optimizeQuality" fill-rule="evenodd" clip-rule="evenodd" viewBox="0 0 100001 64020"  xmlns:xlink="http://www.w3.org/1999/xlink">
	<g>
		<g>
			<path fill="black" d="M8955 0l82091 0 1025 2 865 13c626,17 1259,54 1880,166 630,113 1215,297 1787,589 562,286 1076,659 1523,1106 445,446 819,960 1105,1522 292,572 477,1158 589,1788 111,620 148,1253 166,1881l13 863 2 1026 0 46109 -3 1026 -13 863c-17,626 -54,1259 -165,1880 -112,630 -297,1216 -589,1788 -286,563 -660,1077 -1105,1522 -447,447 -961,821 -1523,1106 -572,291 -1157,477 -1787,590 -621,111 -1254,149 -1880,166l-866 11 -1024 3 -82091 0 -1025 -4 -865 -10c-627,-18 -1260,-56 -1880,-166 -629,-113 -1215,-299 -1787,-590 -562,-285 -1077,-659 -1522,-1106 -447,-445 -821,-960 -1106,-1522 -292,-572 -477,-1158 -589,-1788 -112,-621 -149,-1254 -167,-1880l-13 -863c-1,-343 -1,-684 -1,-1026l0 -46109c0,-342 0,-683 1,-1026l13 -863c18,-628 55,-1261 167,-1881 112,-629 297,-1216 589,-1788 285,-562 659,-1076 1106,-1522 445,-447 960,-820 1522,-1106 572,-292 1158,-476 1787,-589 620,-111 1253,-149 1880,-166l865 -13 1025 -2z"/>
			<path fill="white" d="M91046 2134l1010 1 822 13c478,13 1038,39 1560,133 453,81 834,205 1199,392 360,183 690,423 979,711 288,289 529,620 715,984 184,362 308,741 389,1197 94,517 119,1079 133,1559l12 823 2 1009 0 46109 -2 1015 -12 817c-13,480 -39,1041 -134,1563 -80,450 -204,829 -389,1193 -186,364 -426,695 -714,983 -289,289 -619,529 -984,713 -361,186 -741,310 -1190,390 -533,95 -1115,122 -1555,134l-834 10 -1007 3 -82091 0 -13 0 -1003 -3 -816 -10c-449,-12 -1032,-38 -1560,-133 -454,-81 -833,-205 -1200,-393 -361,-183 -690,-422 -980,-712 -287,-288 -527,-617 -711,-982 -186,-364 -310,-743 -391,-1199 -95,-520 -121,-1079 -134,-1557l-12 -819 -1 -802 0 -211 0 -46109 0 -212 1 -800 12 -820c13,-478 39,-1037 135,-1562 80,-453 204,-832 390,-1198 184,-361 424,-691 713,-980 288,-288 618,-528 982,-712 362,-186 742,-310 1196,-391 521,-94 1082,-120 1561,-133l819 -13 1013 -1 82090 0z"/>
			<path fill="black" d="M28568 23551c-2044,-121 -3781,1160 -4757,1160 -975,0 -2471,-1098 -4086,-1069 -2104,31 -4055,1222 -5123,3113 -2196,3784 -580,9398 1556,12479 1037,1525 2286,3203 3933,3143 1555,-60 2165,-1007 4056,-1007 1889,0 2439,1007 4086,978 1708,-31 2775,-1526 3812,-3052 1189,-1739 1676,-3417 1708,-3509 -31,-31 -3293,-1283 -3324,-5036 -31,-3141 2561,-4637 2683,-4729 -1464,-2165 -3752,-2409 -4544,-2471zm-1268 -2018c857,-1071 1436,-2510 1284,-3979 -1253,62 -2784,826 -3668,1899 -795,918 -1499,2416 -1316,3823 1406,123 2813,-703 3700,-1743z"/>
			<path fill="black" d="M72101 48326l0 -2776c254,63 824,63 1110,63 1586,0 2443,-666 2966,-2378 0,-32 302,-1016 302,-1032l-6027 -16703 3711 1 4219 13577 64 0 4219 -13577 3616 0 -6250 17559c-1427,4045 -3077,5345 -6534,5345 -286,0 -1142,-31 -1396,-79zm-25741 -29027c4441,0 7533,3062 7533,7518 0,4474 -3156,7551 -7644,7551l-4918 0 0 7819 -3553 0 0 -22888 8582 0zm-5029 12087l4077 0c3093,0 4853,-1666 4853,-4552 0,-2887 -1760,-4537 -4838,-4537l-4092 0 0 9089zm13490 6059c0,-2919 2237,-4710 6202,-4934l4569 -269 0 -1284c0,-1857 -1253,-2967 -3347,-2967 -1984,0 -3220,952 -3521,2443l-3237 0c191,-3013 2761,-5235 6885,-5235 4044,0 6630,2143 6630,5489l0 11499 -3284 0 0 -2744 -79 0c-967,1857 -3077,3030 -5266,3030 -3267,0 -5552,-2031 -5552,-5028zm10771 -1507l0 -1316 -4109 254c-2046,143 -3203,1046 -3203,2474 0,1459 1204,2411 3044,2411 2396,0 4268,-1650 4268,-3823z"/>
		</g>
	</g>
</svg>