<?xml version="1.0" encoding="UTF-8"?>
<!DOCTYPE svg PUBLIC "-//W3C//DTD SVG 1.1//EN" "http://www.w3.org/Graphics/SVG/1.1/DTD/svg11.dtd">
<svg xmlns="http://www.w3.org/2000/svg" xml:space="preserve" width="96px" height="70px" version="1.1" shape-rendering="geometricPrecision" text-rendering="geometricPrecision" image-rendering="optimizeQuality" fill-rule="evenodd" clip-rule="evenodd" viewBox="0 0 100001 73280"  xmlns:xlink="http://www.w3.org/1999/xlink">
	<g>
		<g>
			<path fill="white" fill-rule="nonzero" d="M99433 66162c0,3618 -3000,6551 -6702,6551l-85461 0c-3701,0 -6702,-2933 -6702,-6551l0 -59059c0,-3619 3001,-6551 6702,-6551l85461 0c3702,0 6702,2932 6702,6551l0 59059z"/>
			<path fill="black" fill-rule="nonzero" d="M9652 44217c0,-1618 -846,-1512 -1655,-1529l0 -468c702,34 1421,34 2124,34 756,0 1781,-34 3115,-34 4659,0 7197,3112 7197,6299 0,1783 -1044,6263 -7415,6263 -916,0 -1763,-36 -2609,-36 -809,0 -1603,17 -2412,36l0 -469c1080,-108 1603,-144 1655,-1367l0 -8729zm82358 14210c590,0 1031,454 1031,1034 0,578 -441,1027 -1031,1027 -590,0 -1031,-449 -1031,-1027 0,-580 441,-1034 1031,-1034zm0 1870c462,0 815,-393 815,-836 0,-444 -349,-841 -815,-841 -464,0 -818,397 -818,841 0,443 354,836 818,836zm-513 -293l0 -50c125,-18 149,-15 149,-92l0 -764c0,-107 -11,-145 -145,-139l0 -52 528 0c180,0 348,86 348,274 0,153 -100,267 -244,310l170 238c79,106 169,207 226,242l0 33 -200 0c-96,0 -181,-202 -370,-474l-115 0 0 342c0,67 24,64 150,82l0 50 -497 0zm347 -543l122 0c132,0 195,-101 195,-264 0,-164 -96,-222 -202,-222l-115 0 0 486zm-78 6120c-863,0 -1725,-39 -2584,-39 -862,0 -1723,39 -2586,39l-42 0 0 -378 179 0c354,-8 689,-33 694,-613l0 -5034c-5,-477 -339,-509 -694,-515l-179 0 0 -379 42 0c520,0 1031,38 1547,38 498,0 986,-38 1490,-38l39 0 0 379 -285 0c-380,10 -616,-8 -624,487l0 5052c2,366 242,464 548,508 172,11 355,17 543,17 240,0 488,-10 742,-38 398,-47 742,-277 911,-511 151,-209 237,-477 296,-691l8 -32 369 0 -8 51c-111,560 -246,1107 -364,1665l-8 32 -34 0zm-5514 0c-442,-16 -881,-39 -1349,-39 -477,0 -968,23 -1467,39l-44 3 0 -381 149 0c228,0 566,-52 566,-241 2,-112 -86,-379 -196,-692l-371 -1107 -2163 0 -302 989c-98,336 -214,592 -213,750 0,241 368,301 691,301l150 0 0 381 -44 -3c-391,-16 -792,-39 -1182,-39 -352,0 -702,23 -1056,39l-42 3 0 -381 98 0c365,-2 671,-211 814,-608l1566 -4494c125,-363 302,-851 389,-1240 307,-107 700,-304 891,-422 25,-9 52,-21 92,-21 25,-3 77,5 107,58 30,76 59,165 91,244l1801 5121c117,344 234,706 361,997 115,260 292,363 606,365l101 0 0 381 -44 -3zm-3786 -5779l-11 2 11 -2zm-872 2727l1712 0 -851 -2622 -861 2622zm-3093 3200l-405 -14 -4969 -5539 0 3924c12,853 141,1093 877,1101l210 0 0 380 -41 0c-424,0 -845,-39 -1263,-39 -439,0 -889,39 -1333,39l-41 0 0 -380 179 0c645,-1 831,-417 838,-1197l0 -4125c0,-522 -428,-838 -849,-838l-168 0 0 -379 41 0c375,0 757,38 1126,38 291,0 572,-38 904,-22l4303 4843 0 -3601c-4,-778 -525,-873 -811,-879l-257 0 0 -379 44 0c460,0 913,38 1369,38 400,0 799,-38 1207,-38l41 0 0 379 -189 0c-404,10 -821,48 -829,1202l0 4455c0,342 8,684 55,982l9 49 -48 0zm-14575 -3558c5,-2060 1599,-3653 3656,-3656l0 42 0 -42c2102,2 3790,1309 3794,3421 -3,2276 -1637,3788 -3743,3793 -2094,-5 -3702,-1429 -3707,-3558zm3805 3085l0 -43c1861,-1 2185,-1633 2188,-3061 0,-1418 -764,-3118 -2356,-3120 -1679,1 -2175,1492 -2180,2796 1,1744 797,3382 2348,3385l0 43zm-4053 325c-473,0 -1059,-40 -1548,-40 -478,0 -1057,40 -1440,40l-41 0 0 -378 179 0c352,-6 678,-36 681,-515l0 -5130c-3,-479 -329,-511 -681,-517l-179 0 0 -379 41 0c383,0 972,38 1448,38 488,0 1076,-38 1540,-38l41 0 0 379 -179 0c-358,6 -680,38 -682,517l0 5130c2,479 324,509 682,515l179 0 0 378 -41 0zm-5101 0c-384,0 -1071,-38 -1597,-38 -584,0 -1271,38 -1654,38l-44 0 0 -378 230 0c540,-13 756,-20 769,-779l0 -5188 -1561 0 0 -42 0 42c-727,13 -710,136 -871,859l-7 33 -378 0 6 -48c41,-276 90,-551 118,-833 40,-273 58,-545 58,-826l0 -43 312 0 7 30c70,247 248,250 498,254l5104 0c270,-4 468,-8 485,-263l2 -47 46 8 277 44 -6 43c-41,264 -78,527 -107,789 -20,262 -20,526 -20,790l0 30 -29 12 -347 126 -1 -57c-26,-368 -64,-901 -684,-901l-1562 0 0 5168c9,738 302,790 770,799l228 0 0 378 -42 0zm-4291 0c-440,-17 -881,-40 -1347,-40 -481,0 -969,23 -1469,40l-46 3 0 -383 152 0c226,0 563,-50 564,-239 3,-112 -86,-380 -194,-692l-373 -1107 -2159 0 -305 989c-99,333 -218,592 -216,751 4,240 369,298 695,298l150 0 0 383 -45 -3c-391,-17 -790,-40 -1182,-40 -350,0 -704,23 -1055,40l-45 3 0 -383 102 0c363,0 667,-208 809,-606l1568 -4494c127,-363 305,-851 389,-1241 307,-104 701,-303 889,-421 27,-9 54,-21 93,-21 25,-3 77,5 109,55 28,81 59,168 89,247l1803 5121c115,344 233,706 360,996 114,261 293,364 609,364l99 0 0 383 -44 -3zm-3786 -5779l-11 2 11 -2zm-873 2727l1714 0 -853 -2623 -861 2623zm850 -2721l3 -1 -3 1zm-3944 5921l-401 -14 -4970 -5539 0 3924c10,853 140,1094 878,1103l208 0 0 378 -43 0c-423,0 -844,-40 -1263,-40 -437,0 -889,40 -1331,40l-44 0 0 -378 181 0c646,-2 831,-419 839,-1201l0 -4123c-2,-522 -429,-838 -847,-838l-173 0 0 -379 44 0c374,0 757,38 1127,38 288,0 571,-38 900,-26l4305 4847 0 -3601c-2,-778 -525,-875 -809,-879l-259 0 0 -379 43 0c463,0 914,38 1372,38 398,0 800,-38 1204,-38l42 0 0 379 -189 0c-404,10 -819,46 -829,1202l0 4455c0,342 8,681 58,982l5 49 -48 0zm-566 -2120l3 -4 -3 4zm-6648 1972c-328,0 -640,-39 -962,-39 -298,0 -612,39 -952,24 -752,-986 -1395,-2038 -2028,-3156l-579 0 0 2052c11,737 306,731 759,741l220 0 0 378 -44 0c-559,0 -1129,-39 -1683,-39 -467,0 -928,39 -1419,39l-43 0 0 -378 219 0c352,-2 650,-156 652,-485l0 -4976c-9,-695 -348,-691 -652,-701l-219 0 0 -379 43 0c316,0 921,38 1517,38 585,0 1055,-38 1577,-38 1234,3 2371,343 2374,1765 0,883 -585,1436 -1339,1744l1644 2463c274,406 444,508 920,569l37 6 0 372 -42 0zm-4084 -3609c970,-10 1457,-346 1467,-1484 -6,-855 -536,-1386 -1390,-1390 -264,0 -389,25 -514,37l0 2837 437 0zm-3386 3609c-629,0 -1755,-40 -2634,-40 -882,0 -2046,40 -2606,40l-41 0 0 -378 179 0c355,-6 677,-36 681,-515l0 -5130c-4,-479 -326,-511 -681,-517l-179 0 0 -379 41 0c599,0 1617,38 2438,38 823,0 1839,-38 2506,-38l44 0 -2 45c-6,147 -10,320 -10,504 0,339 10,710 30,989l1 34 -33 11 -344 90 -1 -51c-58,-634 -143,-1097 -1152,-1107l-1319 0 -1 2481 1123 0c565,-6 666,-295 733,-822l2 -41 377 0 -2 45c-18,383 -30,763 -30,1146 0,370 12,742 30,1114l2 35 -36 8 -341 68 -2 -46c-68,-598 -73,-925 -722,-932l-1133 0 0 2239c1,595 514,592 1153,595 1179,-7 1651,-65 1945,-1163l11 -40 41 7 313 81 -8 41c-128,518 -243,1035 -333,1554l-7 34 -33 0zm-7303 0c-386,0 -1070,-38 -1597,-38 -587,0 -1272,38 -1656,38l-41 0 0 -378 228 0c539,-13 757,-20 769,-779l0 -5188 -1563 0 0 -42 0 42c-725,14 -710,136 -869,859l-7 33 -377 0 5 -50c40,-274 89,-549 118,-832 41,-272 60,-544 60,-825l0 -43 311 0 7 30c66,247 246,250 497,254l5101 0c273,-4 471,-8 488,-264l3 -46 45 8 277 44 -7 43c-39,264 -77,527 -107,789 -17,262 -17,526 -17,790l0 30 -30 12 -346 126 -2 -57c-28,-368 -65,-901 -684,-901l-1563 0 0 5168c10,738 303,790 769,799l229 0 0 378 -41 0zm-6288 148l-403 -14 -4969 -5540 0 3925c12,852 140,1094 877,1103l211 0 0 378 -44 0c-424,0 -844,-39 -1263,-39 -438,0 -888,39 -1332,39l-42 0 0 -378 180 0c648,-3 832,-419 839,-1199l0 -4124c-1,-522 -429,-839 -848,-839l-171 0 0 -379 42 0c375,0 758,38 1125,38 292,0 575,-38 905,-22l4303 4843 0 -3601c-4,-778 -524,-873 -809,-879l-258 0 0 -379 42 0c463,0 913,38 1371,38 398,0 800,-38 1205,-38l43 0 0 379 -188 0c-405,10 -820,46 -832,1202l0 4455c0,342 11,684 58,981l8 50 -50 0zm-7294 -148c-473,0 -1059,-39 -1547,-39 -480,0 -1055,39 -1440,39l-42 0 0 -378 179 0c356,-8 679,-36 682,-515l0 -5130c-3,-480 -326,-511 -682,-517l-179 0 0 -379 42 0c385,0 972,38 1451,38 487,0 1073,-38 1536,-38l44 0 0 379 -180 0c-356,6 -681,37 -682,517l0 5130c1,479 326,507 682,515l180 0 0 378 -44 0zm74652 -17728c721,-611 1693,-1297 2683,-1297 2087,0 3347,1820 3347,3781 0,2357 -1728,4716 -4303,4716 -1331,0 -2032,-434 -2501,-632l-539 414 -377 -197c161,-1062 252,-2106 252,-3204l0 -7736c0,-1172 -271,-1208 -955,-1406l0 -288c721,-234 1476,-556 1854,-775 198,-106 341,-198 397,-198 107,0 142,109 142,255l0 6567zm0 4894c0,684 649,1837 1855,1837 1925,0 2734,-1890 2734,-3493 0,-1943 -1474,-3562 -2877,-3562 -669,0 -1226,432 -1712,847l0 4371zm-3580 1044c0,325 198,342 502,342 218,0 486,-17 722,-17l0 379c-775,71 -2251,449 -2592,558l-90 -56 0 -1457c-1080,881 -1908,1513 -3188,1513 -971,0 -1978,-632 -1978,-2142l0 -4608c0,-468 -71,-918 -1078,-1007l0 -343c648,-18 2085,-125 2319,-125 201,0 201,125 201,522l0 4643c0,539 0,2085 1565,2085 610,0 1421,-466 2175,-1095l0 -4842c0,-360 -863,-558 -1509,-737l0 -324c1618,-110 2627,-252 2806,-252 145,0 145,125 145,323l0 6640zm-11554 522l341 0c506,0 865,0 865,-595l0 -10020c0,-1172 -270,-1208 -955,-1406l0 -288c720,-234 1477,-556 1855,-775 196,-106 341,-198 394,-198 110,0 145,109 145,255l0 12432c0,595 396,595 900,595l305 0 0 469c-611,0 -1240,-36 -1889,-36 -647,0 -1294,17 -1961,36l0 -469zm-650 -8837l-449 0c-342,-2103 -1836,-2950 -3850,-2950 -2072,0 -5077,1385 -5077,5704 0,3636 2593,6246 5364,6246 1780,0 3258,-1224 3618,-3114l414 107 -414 2628c-756,469 -2790,956 -3980,956 -4208,0 -6871,-2719 -6871,-6768 0,-3690 3293,-6335 6819,-6335 1458,0 2861,468 4247,955l179 2571zm-21415 6804c235,1187 953,2196 2269,2196 1061,0 1457,-648 1457,-1278 0,-2124 -3923,-1439 -3923,-4337 0,-1008 810,-2304 2790,-2304 575,0 1349,163 2050,523l127 1835 -414 0c-180,-1134 -809,-1782 -1963,-1782 -719,0 -1402,414 -1402,1187 0,2108 4174,1459 4174,4284 0,1187 -953,2449 -3095,2449 -720,0 -1567,-253 -2195,-613l-198 -2070 323 -90zm-6927 2033l486 0c501,0 862,0 862,-595l0 -5055c0,-558 -665,-667 -936,-810l0 -270c1315,-558 2034,-1027 2200,-1027 105,0 159,54 159,235l0 1620 38 0c447,-701 1205,-1855 2302,-1855 450,0 1025,306 1025,954 0,486 -340,920 -845,920 -558,0 -558,-434 -1189,-434 -306,0 -1313,415 -1313,1496l0 4226c0,595 359,595 863,595l1006 0 0 469c-988,-19 -1742,-36 -2517,-36 -738,0 -1494,17 -2141,36l0 -469zm-5650 -4497c-38,162 -38,431 0,1043 105,1709 1206,3112 2643,3112 991,0 1766,-540 2431,-1205l250 253c-828,1097 -1853,2034 -3327,2034 -2862,0 -3438,-2773 -3438,-3925 0,-3527 2375,-4572 3633,-4572 1460,0 3026,918 3044,2826 0,110 0,216 -18,325l-162 109 -5056 0zm3185 -577c449,0 502,-235 502,-451 0,-916 -557,-1655 -1566,-1655 -1096,0 -1852,810 -2068,2106l3132 0zm-12402 -289c0,-665 -198,-845 -1042,-1187l0 -341c772,-252 1509,-487 2375,-866 54,0 106,36 106,181l0 1169c1028,-736 1910,-1350 3117,-1350 1527,0 2067,1116 2067,2520l0 4642c0,595 397,595 900,595l325 0 0 469c-632,0 -1261,-36 -1908,-36 -648,0 -1297,17 -1944,36l0 -469 324 0c504,0 863,0 863,-595l0 -4658c0,-1028 -627,-1531 -1655,-1531 -576,0 -1494,467 -2089,865l0 5324c0,595 398,595 902,595l323 0 0 469c-630,0 -1259,-36 -1908,-36 -647,0 -1295,17 -1943,36l0 -469 325 0c503,0 862,0 862,-595l0 -4768zm-5559 5363l341 0c503,0 864,0 864,-595l0 -4877c0,-790 -270,-898 -937,-1258l0 -287c846,-255 1854,-594 1926,-648 127,-72 233,-92 325,-92 88,0 125,109 125,254l0 6908c0,595 396,595 902,595l303 0 0 469c-612,0 -1242,-36 -1888,-36 -648,0 -1296,17 -1961,36l0 -469zm1925 -10527c-469,0 -882,-432 -882,-900 0,-450 432,-866 882,-866 467,0 882,380 882,866 0,487 -396,900 -882,900zm-11574 8872c0,1385 991,1547 1873,1547 3888,0 5165,-2933 5165,-5614 0,-3365 -2160,-5795 -5633,-5795 -740,0 -1080,54 -1405,72l0 9790z"/>
			<path fill="#0069AA" fill-rule="nonzero" d="M7270 73280c-4005,-6 -7269,-3176 -7270,-7118l0 -59059c1,-3785 3009,-6859 6794,-7103l86412 0c3785,244 6793,3318 6795,7103l0 59059c-2,3942 -3266,7112 -7271,7118l-85460 0zm-6134 -66177l0 59059c6,3293 2736,5981 6134,5981l85460 0c3398,0 6129,-2688 6134,-5981l0 -59059c-5,-3295 -2736,-5983 -6134,-5983l-85460 0c-3398,0 -6128,2688 -6134,5983z"/>
			<path fill="#0069AA" fill-rule="nonzero" d="M57461 23808c-6,-4248 -2661,-7870 -6402,-9304l0 18606c3741,-1436 6396,-5055 6402,-9302zm-13538 9299l0 -18602c-3737,1439 -6387,5057 -6398,9303 11,4243 2661,7861 6398,9299zm3571 -25027c-8686,4 -15723,7042 -15724,15728 1,8683 7038,15720 15724,15723 8684,-3 15723,-7040 15725,-15723 -2,-8686 -7041,-15724 -15725,-15728zm-39 32934c-9505,45 -17327,-7655 -17327,-17027 0,-10244 7822,-17329 17327,-17328l4454 0c9392,-1 17963,7081 17963,17328 0,9370 -8571,17027 -17963,17027l-4454 0z"/>
		</g>
	</g>
</svg>