<?xml version="1.0" encoding="UTF-8"?>
<!DOCTYPE svg PUBLIC "-//W3C//DTD SVG 1.1//EN" "http://www.w3.org/Graphics/SVG/1.1/DTD/svg11.dtd">
<svg xmlns="http://www.w3.org/2000/svg" xml:space="preserve" width="172px" height="70px" version="1.1" shape-rendering="geometricPrecision" text-rendering="geometricPrecision" image-rendering="optimizeQuality" fill-rule="evenodd" clip-rule="evenodd" viewBox="0 0 100001 40748"  xmlns:xlink="http://www.w3.org/1999/xlink">
	<g>
		<g>
			<path fill="#AEB1BC" d="M667 0l98673 0c356,139 620,471 661,868l0 38941c-54,519 -485,926 -1011,939l-97973 0c-563,-14 -1017,-480 -1017,-1050l0 -38718c0,-446 278,-828 667,-980z"/>
			<path fill="white" d="M583 980c0,-256 206,-464 461,-464l97919 0c253,0 459,208 459,464l0 38717c0,255 -206,464 -459,464l-97919 0c-255,0 -461,-209 -461,-464l0 -38717z"/>
			<path fill="#005DA0" fill-rule="nonzero" d="M50789 21946c-1342,0 -2576,-325 -3579,-864l339 -2236c1019,540 2068,848 3209,848 1265,0 1820,-462 1820,-1265 0,-1820 -5322,-1050 -5322,-4922 0,-1958 1265,-3548 4197,-3548 1125,0 2344,232 3240,601l-324 2191c-958,-308 -1913,-493 -2793,-493 -1435,0 -1820,493 -1820,1111 0,1805 5322,972 5322,4890 0,2283 -1589,3687 -4289,3687zm-27501 9261l7087 0 -152 -561 -13871 0 -150 561 7086 0zm14307 -20178l-280 -210c-56,-41 -136,-31 -177,26l-3563 4739c-42,55 -30,134 25,177l280 210c56,43 136,31 179,-25l3562 -4738c41,-57 29,-136 -26,-179zm-26200 22643l3489 -11586 9455 0 -815 1090 -1173 1621 -133 240 -123 278 -126 313 -133 333 -125 362 -124 356 -118 360 -115 351 -105 335 -94 308 -85 268 -65 223 -50 171 -41 106c0,0 -7,23 -27,51 -24,32 -167,163 -284,77 -112,-84 -99,-378 -88,-517 34,-429 68,-858 104,-1287 13,-151 -173,-236 -291,-167 -522,300 -834,663 -1118,1082 26,-98 53,-196 79,-295 120,-440 289,-898 354,-1353 37,-259 -28,-567 -332,-617 -340,-57 -564,302 -731,538 -504,713 -804,1619 -1429,2238 -236,234 -499,405 -839,309 -393,-112 -545,352 148,414 683,62 1191,-659 1501,-1164 226,-367 423,-750 643,-1118 105,-176 215,-352 335,-520 52,-72 150,-263 243,-288 121,-33 90,37 83,131 -18,216 -107,440 -165,646 -60,227 -122,455 -184,682 -133,488 -264,974 -397,1461 -59,221 231,323 354,150 485,-694 729,-1281 1328,-1745 -12,153 -25,305 -38,457 -20,252 -66,518 -51,770 29,411 341,697 730,517 205,-95 352,-238 352,-238l23 -16 83 -63 149 -98 206 -142 226 -169 252 -178 295 -208 299 -220 300 -220 299 -221 293 -223 273 -207 252 -205 220 -172 176 -164 138 -130 5 -8 5 2 930 -1101 2384 -3186 4229 -2 3291 11588 -24127 0zm16981 -12088l7493 -10021 766 -1007c0,0 14,-22 22,-33 54,-75 44,-173 -31,-227l-2120 -1538c-75,-53 -172,-33 -227,42 -8,11 -24,31 -24,31l-286 366 -9255 12387 -10192 0 -3819 12590 25499 0 -3601 -12590 -4225 0zm58014 5233l0 2221c0,337 174,479 516,479 115,0 265,-20 344,-49l65 810c-150,65 -437,121 -744,121 -867,0 -1291,-502 -1291,-1325l0 -2257 -487 0 0 -830 536 0 186 -983 875 -78 0 1061 967 0 0 830 -967 0zm-4312 3510l0 -3517 -543 0 0 -823 543 0 0 -187c0,-652 452,-1188 1490,-1188 244,0 515,35 702,92l-65 716c-129,-27 -272,-43 -415,-43 -437,0 -602,173 -602,453l0 157 924 0 0 823 -924 0 0 3517 -1110 0zm-2738 0l0 -4312 1141 -51 0 4363 -1141 0zm574 -4807c-429,0 -637,-120 -637,-472 0,-307 208,-480 637,-480 437,0 631,166 631,480 0,315 -194,472 -631,472zm-4305 4807l0 -4312 888 -44 99 724 23 0c271,-522 694,-780 1188,-780 195,0 359,28 474,65l-71 1096c-137,-43 -303,-72 -473,-72 -581,0 -1011,423 -1011,1147l0 2176 -1117 0zm-2280 0l0 -2763c0,-446 -222,-675 -693,-675 -324,0 -602,144 -738,330l0 3108 -1112 0 0 -5572 1112 -58 0 989 -16 572 23 15c322,-272 716,-372 1081,-372 917,0 1454,616 1454,1663l0 2763 -1111 0zm-3661 -3280c-221,-79 -487,-137 -737,-137 -809,0 -1075,337 -1075,1255 0,932 379,1297 1054,1297 287,0 558,-59 787,-167l78 868c-257,157 -643,251 -1109,251 -1284,0 -1964,-730 -1964,-2249 0,-1440 597,-2250 1986,-2250 365,0 773,79 1045,186l-65 946zm-5423 3367c-523,0 -995,-101 -1361,-300l114 -918c359,207 868,308 1239,308 445,0 631,-179 631,-437 0,-694 -2013,-294 -2013,-1813 0,-781 531,-1339 1648,-1339 437,0 867,86 1232,236l-92 911c-359,-152 -839,-222 -1163,-222 -365,0 -564,142 -564,365 0,659 1984,265 1984,1762 0,867 -479,1447 -1655,1447zm-3118 -3597l0 2221c0,337 174,479 518,479 113,0 264,-20 342,-49l65 810c-151,65 -436,121 -745,121 -866,0 -1289,-502 -1289,-1325l0 -2257 -486 0 0 -830 536 0 185 -983 874 -78 0 1061 969 0 0 830 -969 0zm-3838 3597c-524,0 -997,-101 -1362,-300l114 -918c359,207 867,308 1241,308 442,0 629,-179 629,-437 0,-694 -2013,-294 -2013,-1813 0,-781 531,-1339 1649,-1339 436,0 866,86 1231,236l-92 911c-359,-152 -839,-222 -1161,-222 -366,0 -566,142 -566,365 0,659 1984,265 1984,1762 0,867 -479,1447 -1654,1447zm-3505 -1948c-107,-44 -322,-93 -615,-93 -495,0 -724,193 -724,573 0,422 250,571 616,571 378,0 723,-228 723,-507l0 -544zm164 1447l-21 -7c-266,314 -680,493 -1174,493 -824,0 -1346,-465 -1346,-1439 0,-803 558,-1355 1546,-1355 322,0 602,51 831,123l0 -252c0,-436 -229,-636 -824,-636 -480,0 -794,70 -1197,236l-92 -890c437,-185 931,-285 1490,-285 1282,0 1726,552 1726,1739l0 2687 -852 0 -87 -414zm-3251 -675l-30 1089 -3402 0 0 -5371 1218 0 0 4282 2214 0zm30924 -15901l-1157 3966 2947 0 -1111 -3966 -308 -1219 -48 0 -323 1219zm2407 6141l-4195 0 -650 2252 -2746 0 3996 -11570 3101 0 4042 11570 -2901 0 -647 -2252zm-12468 -7144l-1544 0 0 3550 1544 0c1279,0 1834,-325 1834,-1776 0,-1387 -492,-1774 -1834,-1774zm0 5632l-1544 0 0 3764 -2606 0 0 -11570 4150 0c3209,0 4520,1265 4520,3964 0,2438 -1297,3842 -4520,3842zm-6452 1498l0 2266 -7867 0 0 -11570 7867 0 0 2298 -5260 0 0 2299 4273 0 0 2067 -4273 0 0 2640 5260 0z"/>
			<path fill="#AEB1BC" fill-rule="nonzero" d="M22826 19293c-38,50 -93,74 -150,85 -65,9 -131,-5 -186,-47l-2977 -2236 -3981 -2991 -2977 -2236c-55,-42 -87,-101 -98,-166 -5,-57 4,-119 40,-166l812 -1082c0,0 890,-1152 1673,-2193l3351 2517 3627 2724 3350 2516c-782,1043 -1674,2195 -1674,2195l-810 1080zm-5599 -13627l2959 2224 0 0 2000 1502 1998 1503 2 0 2959 2221c113,86 137,245 54,357l-710 978 -3350 -2517 -3628 -2726 -3351 -2516 711 -978c84,-111 243,-133 356,-48zm10257 7017l-4968 -3730 -4967 -3732c-346,-260 -837,-191 -1097,154l-4373 5821c-68,91 -111,192 -134,297 -76,297 27,624 288,821l2960 2223 3999 3004 2960 2223c261,197 604,204 868,48 94,-52 179,-119 248,-210l4372 -5821c259,-346 189,-837 -156,-1098z"/>
		</g>
	</g>
</svg>