<?xml version="1.0" encoding="UTF-8"?>
<!DOCTYPE svg PUBLIC "-//W3C//DTD SVG 1.1//EN" "http://www.w3.org/Graphics/SVG/1.1/DTD/svg11.dtd">
<svg xmlns="http://www.w3.org/2000/svg" xml:space="preserve" width="114px" height="70px" version="1.1" shape-rendering="geometricPrecision" text-rendering="geometricPrecision" image-rendering="optimizeQuality" fill-rule="evenodd" clip-rule="evenodd" viewBox="0 0 100001 61502"  xmlns:xlink="http://www.w3.org/1999/xlink">
	<g>
		<g>
			<polygon fill="white" fill-rule="nonzero" points="32516,46321 3444,46321 3444,21213 32516,21213 "/>
			<path fill="#71706F" fill-rule="nonzero" d="M78436 30763l0 0 -7967 0c-886,0 -1603,-708 -1603,-1594 0,-883 717,-1662 1603,-1662l12136 0 0 -5985 -12136 0c-4235,0 -7673,3450 -7673,7675 0,4230 3438,7678 7673,7678l7867 0c881,0 1604,700 1604,1586 0,882 -723,1536 -1604,1536l-16860 0c-1437,2732 -2820,5073 -5641,6244l22601 0c4169,-62 7564,-3584 7564,-7765 0,-4197 -3395,-7661 -7564,-7713z"/>
			<path fill="#71706F" fill-rule="nonzero" d="M47891 39997l-6133 0 0 -6162c0,-3449 2737,-6247 6133,-6247 3396,0 6161,2798 6161,6247 0,3446 -2765,6162 -6161,6162zm0 -18475c-6745,0 -12251,5531 -12251,12333l0 260 0 25393 6118 0 0 -13267 6123 0c6744,0 12232,-5607 12232,-12406 0,-6801 -5468,-12313 -12222,-12313z"/>
			<path fill="#B90466" fill-rule="nonzero" d="M16286 46241c-5775,0 -10640,-4120 -11956,-9506 0,0 -380,-1776 -380,-2943 0,-1179 371,-2977 371,-2977 1314,-5362 6171,-9360 11937,-9360 6793,0 12366,5517 12366,12304l0 2985 -18041 0c1065,2082 3218,3253 5703,3253l16211 0 19 -17603c0,-2625 -2144,-4774 -4768,-4774l-22970 0c-2625,0 -4778,2087 -4778,4711l0 22980c0,2620 2153,4831 4778,4831l22970 0c2360,0 4316,-1690 4702,-3901l-16164 0z"/>
			<path fill="#B90466" fill-rule="nonzero" d="M16258 27293c-2476,0 -4619,1512 -5694,3469l11398 0c-1075,-1957 -3228,-3469 -5704,-3469z"/>
			<path fill="#B90466" fill-rule="nonzero" d="M26665 10150c0,-5606 -4659,-10150 -10406,-10150 -5656,0 -10246,4398 -10405,9871l0 72 0 3055c0,360 300,722 675,722l3828 0c367,0 699,-362 699,-722l0 -2848c0,-2799 2332,-5076 5203,-5076 2882,0 5203,2277 5203,5076l0 2848c0,360 299,722 689,722l3815 0c381,0 699,-362 699,-722l0 -2848z"/>
			<path fill="#71706F" fill-rule="nonzero" d="M53246 53184c0,271 205,395 432,395 236,0 554,-196 554,-544 0,-255 -188,-395 -395,-395 -274,0 -591,178 -591,544zm-1845 10c0,261 196,385 413,385 265,0 564,-196 564,-553 0,-255 -169,-386 -395,-386 -270,0 -582,178 -582,554zm3346 978l-553 3131c-270,1594 -1305,2317 -2718,2317 -1184,0 -2109,-779 -1845,-2312l556 -3136 857 0 -555 3131c-169,982 260,1538 1089,1538 857,0 1590,-512 1768,-1533l559 -3136 842 0z"/>
			<path fill="#71706F" fill-rule="nonzero" d="M56217 57827c-28,637 376,1041 969,1041 743,0 1469,-574 1518,-1454 23,-637 -385,-1012 -963,-1012 -742,0 -1475,587 -1524,1425zm603 -3656l-385 2168c328,-444 987,-679 1450,-679 950,0 1618,553 1618,1593 0,1475 -1025,2352 -2336,2352 -506,0 -939,-188 -1195,-665l-149 568 -741 0 939 -5337 799 0z"/>
			<path fill="#71706F" fill-rule="nonzero" d="M63481 57296c69,-650 -318,-911 -959,-911 -573,0 -1112,261 -1338,911l2297 0zm-2428 649c-38,516 375,945 1065,945 385,0 892,-150 1177,-408l432 494c-471,429 -1165,642 -1748,642 -1094,0 -1734,-645 -1734,-1648 0,-1333 1044,-2327 2379,-2327 1223,0 1923,742 1508,2302l-3079 0z"/>
			<path fill="#71706F" fill-rule="nonzero" d="M66247 55733l-37 502c366,-482 807,-587 1214,-587 375,0 707,134 886,332l-482 684c-168,-149 -338,-227 -631,-227 -545,0 -1078,327 -1205,1026l-366 2043 -790 0 671 -3773 740 0z"/>
			<polygon fill="#71706F" fill-rule="nonzero" points="72123,55733 72527,58715 73968,55733 74851,55733 72875,59506 71945,59506 71555,57021 70953,58254 70283,59506 69363,59506 68699,55733 69589,55733 69984,58715 71430,55733 "/>
			<path fill="#71706F" fill-rule="nonzero" d="M78296 57296c67,-650 -318,-911 -959,-911 -573,0 -1103,261 -1340,911l2299 0zm-2428 649c-29,516 375,945 1074,945 385,0 881,-150 1165,-408l435 494c-473,429 -1166,642 -1750,642 -1093,0 -1724,-645 -1724,-1648 0,-1333 1046,-2327 2380,-2327 1223,0 1913,742 1498,2302l-3078 0z"/>
			<path fill="#71706F" fill-rule="nonzero" d="M80412 54708c0,270 208,404 423,404 300,0 593,-196 593,-572 0,-255 -196,-400 -404,-400 -283,0 -612,183 -612,568zm703 1027l-665 3772 -798 0 674 -3772 789 0z"/>
			<path fill="#71706F" fill-rule="nonzero" d="M84628 56665c-246,-274 -554,-347 -930,-347 -530,0 -896,173 -896,502 0,280 303,390 742,433 699,62 1575,294 1392,1266 -131,703 -834,1122 -1821,1122 -612,0 -1205,-133 -1599,-696l505 -565c295,391 790,554 1233,565 377,0 829,-146 892,-493 67,-337 -230,-472 -780,-526 -646,-56 -1354,-297 -1354,-1009 0,-950 1026,-1277 1787,-1277 583,0 1015,130 1363,510l-534 515z"/>
			<path fill="#71706F" fill-rule="nonzero" d="M87131 55733l-367 2034c-115,650 179,1088 849,1088 621,0 1145,-514 1256,-1146l352 -1976 792 0 -671 3773 -713 0 44 -544c-439,423 -882,622 -1412,622 -930,0 -1483,-670 -1287,-1817l366 -2034 791 0z"/>
			<path fill="#71706F" fill-rule="nonzero" d="M93483 59507l355 -2025c125,-649 -100,-1082 -828,-1082 -632,0 -1157,511 -1258,1132l-350 1975 -792 0 670 -3772 723 0 -53 549c428,-409 890,-606 1381,-606 922,0 1513,640 1307,1804l-357 2025 -798 0z"/>
			<path fill="#71706F" fill-rule="nonzero" d="M96389 57850c0,652 423,1037 1035,1037 1638,0 2072,-2516 435,-2516 -772,0 -1470,580 -1470,1479zm-226 2173c-50,526 347,737 1015,737 593,0 1224,-332 1363,-1161l116 -645c-341,482 -967,674 -1440,674 -968,0 -1647,-574 -1647,-1624 0,-1488 1103,-2355 2360,-2355 531,0 1007,255 1176,690l135 -602 760 0 -659 3882c-247,1440 -1316,1883 -2294,1883 -1165,0 -1815,-563 -1647,-1479l762 0z"/>
		</g>
	</g>
</svg>