<?xml version="1.0" encoding="UTF-8"?>
<!DOCTYPE svg PUBLIC "-//W3C//DTD SVG 1.1//EN" "http://www.w3.org/Graphics/SVG/1.1/DTD/svg11.dtd">
<svg xmlns="http://www.w3.org/2000/svg" xml:space="preserve" width="161px" height="70px" version="1.1" shape-rendering="geometricPrecision" text-rendering="geometricPrecision" image-rendering="optimizeQuality" fill-rule="evenodd" clip-rule="evenodd" viewBox="0 0 100001 43366"  xmlns:xlink="http://www.w3.org/1999/xlink">
	<g>
		<g>
			<path fill="#273678" d="M92500 0l-85106 0c-4119,0 -7394,3289 -7394,7409l0 28346c0,4123 3275,7611 7394,7611l85106 0c4128,0 7500,-3488 7500,-7611l0 -28346c1,-4120 -3372,-7409 -7500,-7409z"/>
			<path fill="white" d="M51867 3138l-44473 0c-2359,4 -4269,1914 -4271,4271l0 28346c2,2362 1912,4272 4271,4272l44473 0 0 -36889z"/>
			<g>
				<path fill="white" d="M74101 23353c0,-1038 992,-1436 2257,-1436 564,0 1098,43 1574,63 0,1264 -889,2552 -2301,2552 -875,-1 -1530,-441 -1530,-1179l0 0zm-8959 -2101c0,1724 -854,2902 -2266,2902 -1244,0 -2284,-1178 -2284,-2756 0,-1616 917,-2818 2284,-2818 1454,0 2266,1244 2266,2672l0 0zm18159 9867c774,167 1539,251 2326,251 3425,0 4232,-2635 5287,-5348l3962 -10049 -3730 0 -2221 7042 -44 0 -2320 -7042 -4021 0 4372 11041c-274,956 -972,1498 -1887,1498 -521,0 -972,-63 -1470,-234l-254 2841zm-26436 0l3728 0 0 -5863 44 0c708,1286 2113,1760 3429,1760 3211,0 4933,-2652 4933,-5843 0,-2609 -1641,-5452 -4625,-5452 -1705,0 -3281,682 -4023,2195l-45 0 0 -1941 -3441 0 0 15144zm24762 -4355c-162,-847 -208,-1696 -208,-2550l0 -4018c0,-3292 -2388,-4477 -5145,-4477 -1593,0 -2985,226 -4310,769l61 2526c1037,-579 2240,-806 3440,-806 1355,0 2454,391 2468,1869 -475,-88 -1143,-148 -1741,-148 -1987,0 -5576,392 -5576,3690 0,2342 1901,3395 4040,3395 1536,0 2579,-595 3423,-1946l42 0c0,559 64,1118 79,1696l3427 0z"/>
			</g>
			<g>
				<path fill="#E11616" d="M12273 21274c0,-1470 725,-2695 2113,-2695 1681,0 2388,1350 2388,2552 0,1659 -1062,2776 -2388,2776 -1119,-1 -2113,-954 -2113,-2633l0 0zm31244 3132c-1721,0 -2424,-1430 -2424,-3026 0,-1614 704,-3049 2424,-3049 1722,0 2431,1434 2431,3049 1,1596 -709,3026 -2431,3026l0 0zm-23132 -8433l-3382 0 0 1942 -41 0c-790,-1323 -2076,-2196 -3674,-2196 -3358,0 -4871,2402 -4871,5619 0,3191 1844,5426 4811,5426 1493,0 2741,-576 3629,-1841l42 0 0 581c0,2122 -1161,3129 -3322,3129 -1553,0 -2504,-328 -3646,-892l-189 2951c873,307 2343,680 4129,680 4357,0 6515,-1433 6515,-5867l0 -9532 -1 0zm23132 11043c3570,0 6292,-2077 6292,-5636 0,-3588 -2722,-5661 -6292,-5661 -3561,0 -6282,2073 -6282,5661 0,3559 2721,5636 6282,5636zm-6427 -11174c-372,-62 -829,-123 -1269,-123 -1616,0 -2548,876 -3193,2239l-41 0 0 -1983 -3401 0 0 10790 3739 0 0 -4554c0,-2114 969,-3379 2717,-3379 428,0 845,0 1258,122l190 -3112zm-10397 -4376l-3732 0 0 2739 3732 0 0 -2739zm-3732 15298l3732 0 0 -10789 -3732 0 0 10789z"/>
			</g>
		</g>
	</g>
</svg>