<?xml version="1.0" encoding="UTF-8"?>
<!DOCTYPE svg PUBLIC "-//W3C//DTD SVG 1.1//EN" "http://www.w3.org/Graphics/SVG/1.1/DTD/svg11.dtd">
<svg xmlns="http://www.w3.org/2000/svg" xml:space="preserve" width="90px" height="70px" version="1.1" shape-rendering="geometricPrecision" text-rendering="geometricPrecision" image-rendering="optimizeQuality" fill-rule="evenodd" clip-rule="evenodd" viewBox="0 0 100000 77605"  xmlns:xlink="http://www.w3.org/1999/xlink">
	<g>
		<g>
			<path fill="black" fill-rule="nonzero" d="M72265 68949c436,1 860,75 1271,223l-550 1716c-358,-143 -730,-211 -1115,-206 -1168,0 -1718,756 -1718,2112l0 4592 -1786 0 0 -8198 1770 0 0 996c222,-383 528,-683 915,-898 389,-215 804,-316 1247,-303l-34 -34zm-42011 8403l0 -5151c16,-216 7,-431 -23,-645 -31,-214 -84,-422 -160,-626 -75,-203 -171,-395 -288,-578 -116,-182 -250,-351 -403,-505 -152,-153 -319,-290 -501,-408 -180,-118 -372,-216 -575,-294 -202,-77 -410,-133 -623,-166 -214,-33 -430,-43 -647,-30 -577,-38 -1124,73 -1640,335 -517,261 -931,635 -1243,1123 -284,-472 -669,-841 -1156,-1102 -487,-261 -1005,-380 -1557,-356 -480,-25 -935,72 -1364,289 -429,217 -775,528 -1039,929l0 -1013 -1786 0 0 8198 1802 0 0 -4541c-20,-140 -23,-281 -11,-423 10,-141 37,-280 79,-415 42,-135 99,-264 170,-387 71,-123 154,-237 250,-341 96,-104 202,-198 319,-278 117,-80 241,-148 373,-201 131,-53 267,-91 407,-113 140,-24 281,-31 422,-23 1185,0 1786,773 1786,2164l0 4558 1803 0 0 -4541c-18,-140 -22,-280 -9,-422 12,-140 39,-277 83,-412 43,-136 99,-263 170,-386 71,-122 155,-235 251,-339 95,-104 201,-196 317,-278 116,-80 240,-147 370,-202 131,-53 267,-92 405,-116 141,-23 280,-31 422,-26 1219,0 1802,773 1802,2164l0 4558 1794 0zm10043 -4095l0 -4093 -1802 0 0 995c-307,-397 -688,-700 -1142,-913 -455,-211 -932,-308 -1433,-289 -282,0 -561,27 -837,83 -277,55 -545,135 -806,244 -260,107 -508,240 -742,397 -235,156 -451,334 -650,533 -200,199 -377,416 -534,650 -156,234 -289,482 -396,742 -109,261 -190,529 -245,806 -55,276 -82,556 -82,837 0,282 27,561 82,837 55,277 136,545 245,806 107,260 240,508 396,742 157,234 334,451 534,650 199,199 415,377 650,534 234,156 482,289 742,396 261,109 529,190 806,244 276,56 555,83 837,83 501,19 978,-77 1433,-289 454,-212 835,-516 1142,-912l0 996 1786 0 16 -4079zm-6635 0c20,-323 99,-632 238,-925 141,-291 331,-548 571,-765 241,-218 512,-383 817,-494 305,-112 619,-160 944,-148 323,11 634,85 929,218 296,134 555,319 779,554 223,235 393,504 510,807 118,302 175,615 169,940 -5,325 -71,635 -199,934 -127,298 -307,561 -537,789 -230,228 -496,404 -795,529 -300,124 -612,187 -937,188 -171,5 -340,-9 -507,-40 -168,-32 -331,-80 -489,-145 -159,-67 -307,-147 -449,-244 -141,-97 -271,-206 -388,-330 -118,-123 -223,-258 -311,-403 -91,-145 -165,-299 -222,-460 -58,-160 -100,-326 -123,-494 -24,-171 -29,-339 -17,-511l17 0zm44784 -4292c593,-1 1166,108 1716,327 527,211 993,514 1400,910 401,392 710,847 927,1365 224,549 336,1122 336,1716 0,594 -112,1167 -336,1718 -217,517 -526,972 -927,1364 -407,395 -873,699 -1400,910 -566,220 -1153,330 -1760,330 -607,0 -1193,-110 -1758,-330 -525,-211 -989,-515 -1392,-910 -397,-394 -703,-848 -919,-1364 -223,-551 -335,-1124 -335,-1718 0,-594 112,-1167 335,-1716 216,-517 522,-972 919,-1365 403,-396 867,-699 1392,-910 570,-237 1165,-354 1784,-353l18 26zm0 1717c-353,-4 -693,58 -1022,189 -309,124 -581,304 -816,541 -239,250 -419,535 -540,858 -271,710 -271,1420 0,2129 121,324 301,610 541,859 234,236 506,417 815,541 678,266 1356,266 2034,0 325,-120 611,-301 859,-541 240,-249 420,-535 541,-859 271,-709 271,-1419 0,-2129 -121,-324 -301,-610 -541,-858 -248,-241 -534,-421 -859,-541 -327,-150 -670,-230 -1030,-241l18 52zm-28448 2575c0,-2575 -1597,-4292 -3889,-4292 -282,5 -559,37 -835,96 -275,59 -543,145 -800,256 -259,112 -505,248 -736,408 -232,159 -446,341 -642,543 -196,202 -370,420 -524,657 -152,236 -281,485 -385,747 -104,261 -182,531 -233,808 -51,276 -74,556 -71,838 5,282 36,559 95,835 59,276 144,543 255,802 111,258 247,503 406,735 160,232 340,446 542,643 201,196 421,371 657,524 236,154 484,283 747,388 261,104 530,182 806,232 278,52 557,76 839,72 611,22 1205,-67 1783,-265 579,-199 1102,-493 1572,-885l-857 -1322c-698,560 -1493,846 -2387,859 -295,25 -585,-6 -867,-93 -283,-88 -540,-225 -769,-412 -229,-188 -414,-413 -556,-673 -142,-259 -229,-537 -264,-831l6087 0c26,-214 26,-429 26,-670zm-6103 -720c16,-273 83,-533 201,-779 117,-246 276,-463 477,-647 201,-185 429,-326 684,-421 255,-97 519,-142 792,-136 269,-6 531,40 782,138 252,98 475,240 670,427 193,187 346,403 454,651 109,247 166,506 172,775l-4232 -8zm13613 -1288c-796,-459 -1654,-694 -2574,-704 -980,0 -1563,361 -1563,962 0,600 619,704 1391,807l858 120c1786,258 2867,1012 2867,2454 0,1443 -1373,2679 -3734,2679 -1298,34 -2481,-320 -3545,-1064l859 -1391c810,601 1720,888 2729,858 1219,0 1871,-360 1871,-995 0,-465 -463,-722 -1442,-859l-858 -121c-1837,-257 -2833,-1080 -2833,-2420 0,-1631 1340,-2626 3434,-2626 1197,-41 2310,245 3339,858l-799 1442zm8585 -464l-2911 0 0 3701c0,857 293,1373 1186,1373 566,-19 1093,-173 1579,-464l515 1528c-682,427 -1426,638 -2232,635 -2112,0 -2850,-1133 -2850,-3038l0 -3735 -1665 0 0 -1631 1665 0 0 -2489 1802 0 0 2489 2911 0 0 1631z"/>
			<polygon fill="#7673C0" fill-rule="nonzero" points="36477,6611 63518,6611 63518,55205 36477,55205 "/>
			<path fill="#EB001B" fill-rule="nonzero" d="M38195 30912c-1,-1167 64,-2329 193,-3488 132,-1160 326,-2308 588,-3444 261,-1137 585,-2256 973,-3355 387,-1101 836,-2175 1345,-3225 510,-1049 1077,-2066 1702,-3051 625,-985 1304,-1931 2036,-2839 733,-907 1513,-1771 2344,-2590 830,-820 1704,-1589 2622,-2309 -756,-594 -1537,-1152 -2345,-1673 -807,-521 -1637,-1003 -2488,-1445 -853,-443 -1725,-847 -2614,-1209 -891,-362 -1796,-682 -2714,-960 -921,-278 -1851,-511 -2793,-703 -942,-191 -1891,-338 -2845,-440 -955,-102 -1914,-160 -2875,-174 -960,-13 -1919,19 -2877,96 -958,75 -1910,197 -2856,362 -947,165 -1884,374 -2811,626 -927,253 -1840,548 -2739,886 -900,337 -1782,716 -2646,1136 -864,420 -1706,879 -2528,1378 -821,498 -1617,1034 -2389,1607 -771,573 -1515,1180 -2229,1823 -715,641 -1398,1315 -2050,2022 -652,705 -1269,1439 -1853,2204 -583,763 -1129,1552 -1639,2367 -509,813 -981,1650 -1412,2508 -432,859 -823,1735 -1173,2629 -349,896 -657,1805 -922,2729 -266,922 -487,1856 -665,2800 -178,945 -312,1895 -402,2851 -89,957 -133,1916 -133,2876 0,962 44,1921 133,2876 90,957 224,1908 402,2852 178,944 399,1878 665,2801 265,924 573,1833 922,2727 350,896 741,1772 1173,2631 431,857 903,1695 1412,2508 510,815 1056,1604 1639,2367 584,763 1201,1498 1853,2204 652,707 1335,1380 2050,2022 714,643 1458,1250 2229,1823 772,573 1568,1108 2389,1606 822,500 1664,959 2528,1378 864,421 1746,799 2646,1137 899,337 1812,633 2739,885 927,253 1864,461 2811,626 946,166 1898,286 2856,363 958,76 1917,108 2877,95 962,-13 1920,-71 2875,-174 954,-102 1903,-249 2845,-439 942,-192 1872,-426 2793,-703 918,-279 1823,-598 2714,-960 889,-363 1761,-766 2614,-1209 851,-444 1681,-926 2488,-1447 808,-520 1590,-1077 2345,-1671 -917,-719 -1791,-1489 -2621,-2308 -831,-819 -1611,-1683 -2344,-2590 -732,-908 -1410,-1854 -2035,-2838 -624,-985 -1191,-2001 -1702,-3050 -509,-1049 -957,-2123 -1346,-3223 -387,-1100 -712,-2218 -973,-3354 -261,-1137 -456,-2285 -587,-3443 -131,-1159 -196,-2321 -195,-3487z"/>
			<path fill="#00A1DF" fill-rule="nonzero" d="M99992 30912c0,1442 -102,2877 -303,4305 -200,1428 -500,2836 -898,4221 -400,1387 -892,2738 -1479,4055 -588,1317 -1265,2588 -2029,3811 -766,1222 -1613,2384 -2541,3489 -928,1103 -1929,2137 -3001,3101 -1074,964 -2209,1847 -3405,2653 -1197,804 -2444,1522 -3741,2153 -1297,630 -2631,1167 -4004,1610 -1372,444 -2770,789 -4189,1037 -1421,248 -2853,396 -4294,444 -1442,47 -2879,-6 -4313,-159 -1434,-154 -2850,-407 -4250,-759 -1398,-352 -2765,-800 -4100,-1344 -1336,-543 -2628,-1176 -3876,-1901 -1247,-724 -2437,-1532 -3571,-2423 458,-360 906,-732 1343,-1117 437,-386 862,-783 1276,-1193 415,-410 818,-830 1209,-1263 391,-431 769,-874 1135,-1328 365,-453 718,-917 1057,-1391 340,-473 665,-956 978,-1448 312,-492 609,-992 894,-1501 283,-509 553,-1025 808,-1549 254,-524 493,-1055 718,-1593 224,-537 434,-1080 628,-1630 194,-549 372,-1104 534,-1664 163,-558 309,-1123 441,-1690 130,-568 244,-1138 343,-1713 98,-575 180,-1151 246,-1730 66,-579 115,-1160 148,-1741 33,-581 49,-1163 49,-1747 0,-582 -16,-1164 -49,-1745 -33,-583 -82,-1163 -148,-1741 -66,-579 -148,-1157 -246,-1731 -99,-574 -213,-1144 -343,-1712 -132,-568 -278,-1132 -441,-1692 -162,-558 -340,-1113 -534,-1663 -194,-549 -404,-1092 -628,-1630 -225,-538 -464,-1068 -718,-1593 -255,-523 -525,-1040 -808,-1548 -285,-509 -582,-1010 -894,-1501 -313,-493 -638,-976 -978,-1449 -339,-473 -692,-937 -1057,-1391 -366,-453 -744,-896 -1135,-1329 -391,-431 -794,-852 -1209,-1261 -414,-410 -839,-808 -1276,-1193 -437,-385 -885,-758 -1343,-1117 1134,-892 2324,-1701 3571,-2425 1248,-725 2540,-1360 3876,-1904 1335,-543 2703,-992 4102,-1344 1399,-352 2815,-606 4250,-760 1434,-154 2873,-208 4314,-160 1442,47 2873,195 4294,443 1421,248 2818,593 4191,1037 1374,443 2708,980 4006,1611 1297,629 2544,1347 3742,2153 1196,804 2332,1689 3405,2654 1074,964 2074,1997 3003,3101 928,1105 1775,2268 2540,3492 765,1222 1442,2492 2029,3810 588,1317 1081,2669 1479,4056 398,1387 698,2794 899,4222 201,1428 301,2865 301,4307l-8 8z"/>
		</g>
	</g>
</svg>