<?xml version="1.0" encoding="UTF-8"?>
<!DOCTYPE svg PUBLIC "-//W3C//DTD SVG 1.1//EN" "http://www.w3.org/Graphics/SVG/1.1/DTD/svg11.dtd">
<svg xmlns="http://www.w3.org/2000/svg" xml:space="preserve" width="113px" height="70px" version="1.1" shape-rendering="geometricPrecision" text-rendering="geometricPrecision" image-rendering="optimizeQuality" fill-rule="evenodd" clip-rule="evenodd" viewBox="0 0 99999 61813"  xmlns:xlink="http://www.w3.org/1999/xlink">
	<g>
		<g>
			<polygon fill="#FF5F00" fill-rule="nonzero" points="36478,6609 63518,6609 63518,55204 36478,55204 "/>
			<path fill="#EB001B" fill-rule="nonzero" d="M38195 30911c-1,-1167 63,-2329 194,-3489 131,-1158 326,-2306 587,-3444 261,-1136 586,-2254 973,-3354 387,-1101 836,-2175 1345,-3224 510,-1049 1077,-2067 1702,-3051 625,-985 1304,-1931 2036,-2839 733,-909 1513,-1772 2344,-2592 830,-818 1704,-1588 2622,-2309 -756,-593 -1537,-1150 -2345,-1671 -806,-521 -1637,-1003 -2488,-1447 -853,-443 -1725,-845 -2614,-1208 -891,-361 -1795,-681 -2714,-959 -920,-278 -1851,-513 -2792,-703 -943,-191 -1891,-338 -2847,-440 -954,-103 -1912,-161 -2873,-174 -961,-13 -1920,19 -2877,95 -958,76 -1910,197 -2857,362 -947,166 -1883,375 -2810,626 -927,253 -1840,548 -2739,886 -900,338 -1782,717 -2646,1136 -864,421 -1706,880 -2529,1378 -820,499 -1616,1034 -2388,1607 -772,573 -1515,1181 -2230,1822 -714,643 -1397,1317 -2049,2022 -652,706 -1269,1441 -1853,2204 -583,764 -1129,1553 -1639,2367 -510,815 -980,1651 -1412,2509 -432,858 -823,1735 -1172,2630 -350,895 -658,1803 -923,2727 -266,924 -488,1858 -665,2802 -178,943 -312,1894 -401,2851 -90,956 -135,1915 -135,2876 0,961 45,1919 135,2876 89,956 223,1907 401,2851 177,943 399,1878 665,2801 265,924 573,1832 923,2727 349,896 740,1772 1172,2631 432,857 902,1693 1412,2508 510,814 1056,1603 1639,2367 584,763 1201,1498 1853,2204 652,705 1335,1380 2049,2022 715,641 1458,1250 2230,1822 772,573 1568,1108 2388,1607 823,498 1665,958 2529,1378 864,419 1746,798 2646,1136 899,338 1812,633 2739,886 927,252 1863,461 2810,626 947,165 1899,286 2857,363 957,75 1916,107 2877,94 961,-13 1919,-71 2873,-174 956,-102 1904,-249 2847,-440 941,-190 1872,-425 2792,-703 919,-277 1823,-597 2714,-959 889,-362 1761,-765 2614,-1208 851,-444 1682,-926 2488,-1447 808,-521 1589,-1078 2345,-1671 -917,-721 -1791,-1489 -2621,-2309 -830,-819 -1611,-1682 -2343,-2589 -733,-908 -1411,-1854 -2035,-2838 -625,-985 -1193,-2002 -1702,-3051 -509,-1049 -958,-2122 -1347,-3222 -387,-1100 -711,-2218 -973,-3354 -260,-1136 -456,-2284 -587,-3443 -131,-1159 -196,-2321 -195,-3487l0 0z"/>
			<path fill="#F79E1B" fill-rule="nonzero" d="M99999 30911c0,1442 -101,2877 -301,4307 -201,1427 -501,2835 -899,4222 -398,1387 -891,2739 -1479,4056 -587,1318 -1264,2588 -2029,3810 -765,1224 -1612,2387 -2540,3491 -929,1103 -1929,2138 -3003,3102 -1073,964 -2208,1848 -3405,2654 -1197,805 -2445,1522 -3742,2153 -1298,630 -2632,1167 -4005,1611 -1373,443 -2769,789 -4191,1037 -1421,247 -2853,394 -4295,441 -1441,48 -2879,-5 -4313,-159 -1435,-155 -2851,-407 -4250,-761 -1399,-352 -2767,-799 -4103,-1344 -1335,-544 -2628,-1178 -3875,-1902 -1247,-726 -2438,-1533 -3571,-2425 458,-360 906,-734 1343,-1119 437,-385 862,-783 1276,-1191 415,-410 818,-831 1209,-1263 390,-432 768,-875 1135,-1329 365,-453 718,-916 1057,-1390 340,-473 665,-956 978,-1448 311,-492 609,-992 894,-1501 283,-509 552,-1025 808,-1550 253,-524 493,-1054 718,-1592 224,-537 434,-1080 628,-1630 194,-550 372,-1104 534,-1664 163,-558 309,-1123 440,-1690 130,-568 245,-1140 344,-1714 98,-574 180,-1150 246,-1729 66,-578 114,-1159 147,-1741 33,-582 50,-1164 50,-1746 0,-583 -17,-1165 -50,-1747 -33,-581 -81,-1161 -147,-1741 -66,-579 -148,-1155 -246,-1729 -99,-574 -214,-1146 -344,-1714 -131,-567 -277,-1130 -440,-1690 -162,-560 -340,-1114 -534,-1663 -194,-550 -404,-1094 -628,-1631 -225,-538 -465,-1068 -718,-1592 -256,-525 -525,-1041 -808,-1550 -285,-509 -583,-1009 -894,-1501 -313,-491 -638,-974 -978,-1448 -339,-474 -692,-937 -1057,-1390 -367,-454 -745,-897 -1135,-1329 -391,-432 -794,-853 -1209,-1262 -414,-409 -839,-807 -1276,-1192 -437,-385 -885,-758 -1343,-1119 1133,-891 2324,-1699 3571,-2424 1247,-724 2540,-1359 3875,-1903 1336,-545 2704,-992 4103,-1344 1399,-353 2815,-606 4250,-761 1434,-153 2872,-207 4313,-159 1442,47 2874,195 4295,441 1422,248 2818,595 4191,1037 1373,445 2707,981 4005,1611 1297,631 2545,1349 3742,2154 1197,805 2332,1690 3405,2653 1074,964 2074,1999 3003,3103 928,1104 1775,2268 2540,3490 765,1223 1442,2494 2029,3810 588,1319 1081,2671 1479,4057 398,1387 698,2794 899,4223 200,1428 301,2864 301,4306l0 8z"/>
		</g>
	</g>
</svg>