<?xml version="1.0" encoding="UTF-8"?>
<!DOCTYPE svg PUBLIC "-//W3C//DTD SVG 1.1//EN" "http://www.w3.org/Graphics/SVG/1.1/DTD/svg11.dtd">
<svg xmlns="http://www.w3.org/2000/svg" xml:space="preserve" width="64px" height="70px" version="1.1" shape-rendering="geometricPrecision" text-rendering="geometricPrecision" image-rendering="optimizeQuality" fill-rule="evenodd" clip-rule="evenodd" viewBox="0 0 92001 100310"  xmlns:xlink="http://www.w3.org/1999/xlink">
	<g>
		<g>
			<path fill="white" d="M92001 84460c-622,8827 -7970,15817 -16932,15849l-58082 0c-9369,-35 -16987,-7673 -16987,-17064l0 -66195c0,-9316 7517,-16915 16798,-17049l58458 0c8878,129 16127,7084 16745,15835l0 68624z"/>
			<path fill="#1A1A1A" fill-rule="nonzero" d="M34019 32636l11844 0 0 -1092 -3508 0 0 -9118c55,-2247 0,-5530 1215,-7568 923,-1608 2807,-2808 4635,-2808 322,0 1035,0 1831,475 1243,768 1413,2136 1451,3436 0,515 58,1033 58,1549l0 14034 -3281 0 0 1092 11688 0 0 -1092 -3462 0 0 -12819c0,-1620 0,-2932 -603,-4399 -1577,-3492 -5432,-3798 -6478,-3798 -1468,0 -4693,418 -7054,3701l0 -3075 -8336 0 0 1103 3377 0 0 19287 -3377 0 0 1092zm-6285 -14973c42,2026 154,8129 -153,10154 -629,3769 -3449,4229 -4915,4229 -407,0 -1412,0 -2502,-515 -2401,-1102 -2821,-3392 -2931,-5739 0,-838 -42,-1717 -42,-2556 0,-3602 0,-6355 363,-7821 949,-3379 4020,-3700 5112,-3700 935,0 1939,209 2763,685 1927,1131 2206,3224 2305,5263zm5935 4204c0,-4943 -2806,-7751 -4217,-8952 -1927,-1563 -4274,-2387 -6786,-2387 -4805,0 -7569,2806 -8673,4162 -2291,2806 -2557,5891 -2557,7177 0,5336 3239,8211 4804,9302 1941,1409 3967,2067 6384,2067 3741,0 6143,-1815 7248,-2807 3503,-3073 3797,-6830 3797,-8562zm32288 -1745l14354 0c-54,-1146 -318,-4329 -2874,-6829 -2431,-2500 -5476,-2765 -6662,-2765 -5013,0 -7779,3701 -8686,5069 -1704,2653 -1858,5211 -1858,6452 0,1829 363,5474 3951,8601 950,782 3239,2599 6690,2599 4903,0 7360,-3589 8101,-4987 556,-1157 755,-2347 879,-2777l-1296 -41c-395,2499 -2195,4956 -4499,5988 -1314,575 -2401,630 -2975,630 -2542,0 -3755,-1412 -4286,-2291 -923,-1663 -880,-3659 -839,-7402l0 -2247zm-41 -1103l41 -1885c0,-1398 111,-2138 321,-2821 365,-923 1453,-2641 4175,-2641 3336,0 3854,2444 3965,3647 43,571 99,1087 99,1660l0 2040 -8601 0z"/>
			<path fill="#CC4040" fill-rule="nonzero" d="M35008 73718l-8393 -3728c-1199,-558 -2457,-1130 -3643,-1800 -3924,-2206 -5961,-4246 -7164,-5963 -154,-183 -1187,-1607 -1187,-2865 0,-349 85,-1800 1662,-1464 950,196 1871,641 2821,1046l10263 4525c799,322 1845,739 2670,909 279,55 1353,292 2150,-73 514,-195 1339,-977 1339,-2581 0,-1733 -921,-3477 -1186,-3898 -1942,-3337 -5659,-5612 -6424,-6088l-365 880c713,447 3493,2180 5322,4677 629,812 839,1538 839,1901 0,378 -153,908 -992,739 -798,-166 -2920,-1131 -5126,-2053l-7654 -3365c-1465,-614 -2190,-866 -2929,-1006 -939,-208 -2991,-362 -3815,1914 -250,783 -250,1369 -250,1718 -56,2766 1729,5475 3755,7609 1049,1050 1984,1776 2403,2126 -1047,-532 -1635,-756 -2207,-868 -1354,-294 -2613,29 -3268,1076 -629,977 -683,2277 -683,2584 0,3032 1968,6046 4287,8196 600,533 1186,1077 1815,1524l-5530 -2556 0 9439 1032 476 0 -4691 20458 8921 0 -4689 -8293 -3593c-950,-459 -5529,-2343 -8715,-5289 -2290,-2152 -3450,-4373 -3450,-5531 0,-1034 573,-1759 1677,-1522 1006,208 2974,1131 3909,1535l14872 6577 0 -4749zm-5612 -35874c-4497,-2626 -7669,-4944 -9874,-6619 -1089,-825 -1815,-1803 -2121,-3925 -323,-2124 432,-6090 -3128,-6144 -1510,0 -2837,1340 -2586,3003 182,1242 713,3810 4023,6701 1272,1117 3953,2528 6549,4092 2975,1816 7710,4513 7710,4513l-11690 823c-2709,223 -4006,209 -4845,1298 -210,208 -572,866 -572,1802 0,893 265,1619 419,1913 474,1144 1200,2178 3182,3784 839,655 1929,1494 3911,2794l419 -741c-1774,-1411 -3296,-2040 -4804,-3757 -308,-319 -669,-824 -669,-1242 0,-685 781,-881 1410,-965 515,-97 1089,-140 1662,-167l2667 -237 9383 -658c2347,-248 3814,-319 4902,-98 1105,241 2359,868 4345,2418 893,656 1661,1395 2500,2135 2917,2696 4426,5041 5208,6509 573,1004 893,1649 893,2108 0,476 -320,672 -460,698l-364 -136 -487 -199c-1147,-252 -1776,517 -1776,1509 0,406 72,1675 1301,2457 319,238 684,348 837,391 851,155 1314,-209 1523,-376 947,-754 990,-1943 990,-2345 0,-1888 -1199,-5056 -4371,-8784 -3141,-3631 -7583,-7263 -16087,-12555z"/>
			<path fill="#54595F" fill-rule="nonzero" d="M90046 82586c0,9038 -6730,15697 -15712,15697l-56627 0c-8979,0 -15711,-6659 -15711,-15697l0 -64853c0,-9022 6732,-15711 15711,-15711l56627 0c8982,0 15712,6689 15712,15711l0 64853zm-73059 17723l58082 0c8962,-32 16310,-7022 16932,-15849l0 -68624c-618,-8751 -7867,-15706 -16745,-15835l-58458 0c-9281,134 -16798,7733 -16798,17049l0 66195c0,9391 7618,17029 16987,17064z"/>
		</g>
	</g>
</svg>