<?xml version="1.0" encoding="UTF-8" standalone="no"?>
<!-- Generator: Adobe Illustrator 23.0.4, SVG Export Plug-In . SVG Version: 6.00 Build 0)  -->

<svg
   version="1.1"
   id="Layer_2"
   x="0px"
   y="0px"
   viewBox="0 0 226.51804 129.29788"
   xml:space="preserve"
   sodipodi:docname="payconiq_trans.svg"
   width="226.51804"
   height="129.29788"
   inkscape:version="1.2.1 (9c6d41e410, 2022-07-14)"
   xmlns:inkscape="http://www.inkscape.org/namespaces/inkscape"
   xmlns:sodipodi="http://sodipodi.sourceforge.net/DTD/sodipodi-0.dtd"
   xmlns="http://www.w3.org/2000/svg"
   xmlns:svg="http://www.w3.org/2000/svg"><defs
   id="defs38" /><sodipodi:namedview
   id="namedview36"
   pagecolor="#ffffff"
   bordercolor="#000000"
   borderopacity="0.25"
   inkscape:showpageshadow="2"
   inkscape:pageopacity="0.0"
   inkscape:pagecheckerboard="0"
   inkscape:deskcolor="#d1d1d1"
   showgrid="false"
   inkscape:zoom="3.4880694"
   inkscape:cx="113.6732"
   inkscape:cy="42.000311"
   inkscape:window-width="1920"
   inkscape:window-height="991"
   inkscape:window-x="-9"
   inkscape:window-y="-9"
   inkscape:window-maximized="1"
   inkscape:current-layer="Layer_2" />
<style
   type="text/css"
   id="style21">
	.st0{fill:#FFFFFF;}
	.st1{fill:#FF4785;}
</style>

<g
   id="XMLID_5_"
   transform="translate(-49.597637,-50.45771)">
	<g
   id="g27">
		<path
   class="st1"
   d="m 206.1,52.1 c -7.6,0 -14.6,2.4 -20.4,6.5 l -31.3,22.8 c -2.7,-16.6 -17.1,-29.3 -34.5,-29.3 -19.3,0 -35,15.7 -35,35 0,19.3 15.7,35 35,35 7.6,0 14.7,-2.5 20.5,-6.6 l 31.2,-22.7 c 2.7,16.6 17.1,29.3 34.5,29.3 19.3,0 35,-15.7 35,-35 0,-19.3 -15.6,-35 -35,-35 z m -86.2,50.7 c -8.7,0 -15.7,-7 -15.7,-15.7 0,-8.7 7,-15.7 15.7,-15.7 8.7,0 15.7,7 15.7,15.7 0,8.7 -7,15.7 -15.7,15.7 z m 86.2,0 c -8.7,0 -15.7,-7 -15.7,-15.7 0,-8.7 7,-15.7 15.7,-15.7 8.7,0 15.7,7 15.7,15.7 0,8.7 -7,15.7 -15.7,15.7 z"
   id="path25" />
	</g>
</g>
<g
   id="XMLID_1_"
   transform="translate(-49.597637,-50.45771)">
	<g
   id="g32">
		<path
   class="st1"
   d="m 234.5,143.4 h 8.1 v 28.4 h -8.1 z m 4,-12.6 c -2.6,0 -4.7,2.1 -4.7,4.8 0,2.6 2.1,4.8 4.7,4.8 2.6,0 4.7,-2.1 4.7,-4.8 0.1,-2.7 -2.1,-4.8 -4.7,-4.8 z m 36,12.6 v 34.9 h -8.1 v -7.8 c -1.9,0.9 -3.9,1.4 -6.1,1.4 -7.8,0 -14.2,-6.4 -14.2,-14.3 0,-7.9 6.3,-14.3 14.2,-14.3 2.2,0 4.3,0.5 6.1,1.4 v -1.2 h 8.1 z m -8.1,14.2 c 0,-3.4 -2.7,-6.1 -6,-6.1 -3.3,0 -6,2.7 -6,6.1 0,3.4 2.7,6.1 6,6.1 3.3,0 6,-2.8 6,-6.1 z m -109.5,-6.2 c 2,0 3.9,1 5,2.8 l 6.8,-4.5 c -2.6,-4 -7,-6.5 -11.8,-6.5 -7.8,0 -14.2,6.4 -14.2,14.3 0,7.9 6.3,14.3 14.2,14.3 4.7,0 9.1,-2.4 11.8,-6.4 L 162,161 c -1.1,1.7 -3,2.7 -5,2.7 -3.3,0 -6,-2.7 -6,-6.1 -0.1,-3.4 2.6,-6.2 5.9,-6.2 z m -77,6.2 c 0,7.9 -6.3,14.3 -14.2,14.3 -2.2,0 -4.3,-0.5 -6.2,-1.5 v 7.9 h -8.1 v -34.9 h 8.1 v 1.3 c 1.9,-0.9 4,-1.5 6.2,-1.5 7.9,0 14.2,6.5 14.2,14.4 z m -8.1,0 c 0,-3.4 -2.7,-6.1 -6,-6.1 -3.3,0 -6,2.7 -6,6.1 0,3.4 2.7,6.1 6,6.1 3.3,0 6,-2.8 6,-6.1 z m 38.9,14.2 h -8.1 v -1.3 c -1.8,0.9 -3.9,1.4 -6,1.4 -7.8,0 -14.2,-6.4 -14.2,-14.3 0,-7.9 6.3,-14.3 14.2,-14.3 2.1,0 4.2,0.5 6,1.4 v -1.2 h 8.1 z m -8.1,-15 c -0.3,-3 -2.9,-5.4 -6,-5.4 -3.3,0 -6,2.7 -6,6.1 0,3.4 2.7,6.1 6,6.1 3.1,0 5.6,-2.4 6,-5.4 z m 113.6,-13.3 c -1.7,0 -3.5,0.4 -5.2,1 v -1.1 h -8.1 v 28.4 h 8.1 v -14.9 c 0,-5 4.6,-5.2 5.2,-5.2 1.4,0 2.6,0.4 3.5,1.3 1,0.9 1.5,2.3 1.5,4.1 v 14.5 h 8.1 V 157 c 0,-8.9 -6.6,-13.5 -13.1,-13.5 z m -73.4,0 h -8.2 l -5.8,15 -6.3,-15 h -8.8 l 11.2,25 -3.9,9.9 h 8.2 z m 56.6,14.1 c 0,7.9 -6.3,14.3 -14.2,14.3 -7.8,0 -14.2,-6.4 -14.2,-14.3 0,-7.9 6.3,-14.3 14.2,-14.3 7.8,-0.1 14.2,6.4 14.2,14.3 z m -8.1,0 c 0,-3.4 -2.7,-6.1 -6,-6.1 -3.3,0 -6,2.7 -6,6.1 0,3.4 2.7,6.1 6,6.1 3.3,0 6,-2.8 6,-6.1 z"
   id="path30" />
	</g>
</g>
</svg>
