<?xml version="1.0" encoding="UTF-8"?>
<!DOCTYPE svg PUBLIC "-//W3C//DTD SVG 1.1//EN" "http://www.w3.org/Graphics/SVG/1.1/DTD/svg11.dtd">
<svg xmlns="http://www.w3.org/2000/svg" xml:space="preserve" width="289px" height="70px" version="1.1" shape-rendering="geometricPrecision" text-rendering="geometricPrecision" image-rendering="optimizeQuality" fill-rule="evenodd" clip-rule="evenodd" viewBox="0 0 100000 24262"  xmlns:xlink="http://www.w3.org/1999/xlink">
	<g>
		<g>
			<path fill="#0099D9" fill-rule="nonzero" d="M77646 10574c-300,1975 -1809,1975 -3267,1975l-829 0 582 -3685c34,-223 227,-387 453,-387l380 0c992,0 1929,0 2413,565 289,338 376,839 268,1532zm-635 -5149l-5499 0c-375,0 -697,274 -753,646l-2224 14098c-45,278 170,531 452,531l2822 0c262,0 487,-193 526,-453l631 -3996c59,-371 379,-645 756,-645l1740 0c3621,0 5712,-1753 6257,-5228 247,-1519 11,-2712 -700,-3549 -783,-918 -2169,-1404 -4008,-1404z"/>
			<path fill="#242E7C" fill-rule="nonzero" d="M38428 10574c-300,1975 -1808,1975 -3266,1975l-830 0 582 -3685c35,-223 227,-387 454,-387l379 0c992,0 1931,0 2413,565 290,338 376,839 268,1532zm-635 -5149l-5499 0c-375,0 -695,274 -753,646l-2224 14098c-44,278 171,531 452,531l2626 0c375,0 695,-274 754,-646l600 -3803c60,-371 380,-645 755,-645l1740 0c3621,0 5712,-1753 6258,-5228 246,-1519 10,-2712 -701,-3549 -783,-918 -2169,-1404 -4008,-1404z"/>
			<path fill="#242E7C" fill-rule="nonzero" d="M50559 15636c-254,1504 -1448,2514 -2973,2514 -763,0 -1375,-245 -1767,-709 -390,-462 -536,-1118 -412,-1850 237,-1491 1449,-2534 2949,-2534 749,0 1356,248 1756,718 404,471 562,1134 447,1861zm3669 -5124l-2632 0c-227,0 -417,163 -453,387l-117 736 -184 -267c-570,-827 -1840,-1104 -3108,-1104 -2911,0 -5396,2204 -5880,5296 -250,1542 106,3016 982,4045 803,945 1950,1338 3315,1338 2344,0 3645,-1506 3645,-1506l-117 732c-44,278 171,531 452,531l2372 0c376,0 695,-274 754,-645l1424 -9014c43,-278 -172,-529 -453,-529z"/>
			<path fill="#0099D9" fill-rule="nonzero" d="M89777 15636c-254,1504 -1450,2514 -2972,2514 -764,0 -1376,-245 -1769,-709 -390,-462 -535,-1118 -413,-1850 238,-1491 1451,-2534 2952,-2534 748,0 1355,248 1755,718 403,471 561,1134 447,1861zm3669 -5124l-2634 0c-225,0 -417,163 -452,387l-117 736 -183 -267c-570,-827 -1840,-1104 -3110,-1104 -2910,0 -5395,2204 -5878,5296 -252,1542 106,3016 981,4045 804,945 1950,1338 3316,1338 2344,0 3645,-1506 3645,-1506l-117 732c-44,278 171,531 452,531l2370 0c377,0 696,-274 755,-645l1425 -9014c43,-278 -172,-529 -453,-529z"/>
			<path fill="#242E7C" fill-rule="nonzero" d="M68251 10512l-2647 0c-252,0 -488,125 -631,335l-3651 5376 -1547 -5166c-96,-324 -394,-545 -731,-545l-2602 0c-315,0 -537,309 -434,607l2913 8553 -2740 3867c-209,296 -9,704 347,723l2706 0c237,-11 457,-132 593,-329l8801 -12702c210,-304 -8,-719 -377,-719z"/>
			<path fill="#0099D9" fill-rule="nonzero" d="M96549 5812l-2257 14359c-44,277 171,529 452,529l2271 0c376,0 696,-274 754,-645l2225 -14099c44,-280 -171,-530 -452,-530l-2541 0c-225,0 -417,164 -452,386z"/>
			<path fill="#0099D9" fill-rule="nonzero" d="M18530 6164c296,-1887 -2,-3171 -1023,-4335 -1124,-1281 -3154,-1829 -5753,-1829l-7540 0c-530,0 -983,386 -1065,911l-3141 19910c-4,31 -7,62 -8,92l0 18c4,347 287,639 648,639l4655 0 -321 2036c-55,345 211,656 560,656l3923 0c464,0 860,-338 932,-797l38 -200 740 -4687 48 -259c72,-459 467,-796 933,-796l586 0c3801,0 6778,-1544 7647,-6011 364,-1867 176,-3425 -784,-4519 -291,-332 -653,-606 -1075,-829z"/>
			<path fill="#281D67" fill-rule="nonzero" d="M18530 6164c296,-1887 -2,-3171 -1023,-4335 -1124,-1281 -3154,-1829 -5753,-1829l-7540 0c-530,0 -983,386 -1065,911l-3141 19910c-4,31 -7,62 -8,92l0 18c4,347 287,639 648,639l4655 0 1171 -7416 -38 233c84,-525 531,-910 1062,-910l2213 0c4345,0 7747,-1767 8742,-6872 30,-150 55,-297 77,-441z"/>
			<path fill="#242E7C" fill-rule="nonzero" d="M7729 6189c51,-315 253,-574 524,-705 124,-59 263,-92 408,-92l5911 0c699,0 1354,46 1950,143 170,27 337,59 497,94 162,35 318,76 470,121 76,21 152,44 224,68 293,98 565,213 817,346 296,-1887 -1,-3171 -1023,-4335 -1123,-1281 -3154,-1829 -5752,-1829l-7540 0c-531,0 -984,386 -1067,911l-3140 19910c-4,31 -7,62 -8,91l0 19c5,347 287,639 648,639l4655 0 1169 -7416 1257 -7965z"/>
		</g>
	</g>
</svg>