<?xml version="1.0" encoding="UTF-8"?>
<!DOCTYPE svg PUBLIC "-//W3C//DTD SVG 1.1//EN" "http://www.w3.org/Graphics/SVG/1.1/DTD/svg11.dtd">
<svg xmlns="http://www.w3.org/2000/svg" xml:space="preserve" width="112px" height="70px" version="1.1" shape-rendering="geometricPrecision" text-rendering="geometricPrecision" image-rendering="optimizeQuality" fill-rule="evenodd" clip-rule="evenodd" viewBox="0 0 100000 62747"  xmlns:xlink="http://www.w3.org/1999/xlink">
	<g>
		<g>
			<path fill="#FFCC00" fill-rule="nonzero" d="M5968 0c0,0 -5968,0 -5968,5971l0 0 0 50810c0,0 0,5966 5968,5966l0 0 88064 0c0,0 5968,0 5968,-5966l0 0 0 -50810c0,0 0,-5971 -5968,-5971l0 0 -88064 0z"/>
			<polygon fill="white" fill-rule="nonzero" points="78315,38277 79165,34252 9814,34252 8965,38277 "/>
			<path fill="red" fill-rule="nonzero" d="M86669 28770c0,0 927,-4263 940,-4302l-5910 0c0,26 -1219,5657 -1219,5681l1513 0c14,0 930,-4248 930,-4248l2867 0c0,0 -902,4262 -928,4288l4365 0 -569 2632 -4341 0c0,26 -876,4010 -876,4010l-3281 0c0,13 -292,1433 -305,1446l4834 0c0,-13 864,-4025 864,-4025l4339 0c0,-12 1143,-5456 1143,-5482l-4366 0z"/>
			<g>
				<path fill="black" fill-rule="nonzero" d="M75974 30031c625,0 1049,425 1049,1129 0,119 -13,224 -25,344l-2697 0c278,-888 876,-1473 1673,-1473zm1340 5284l348 -1579c-586,199 -1158,359 -1887,359 -851,0 -1593,-293 -1633,-1314l4382 0c158,-520 251,-1039 251,-1516 0,-1460 -849,-2656 -2669,-2656 -2363,0 -3797,1940 -3797,4077 0,1833 1221,2909 3122,2909 771,0 1380,-119 1883,-280zm-7210 -1339c-863,0 -1447,-373 -1447,-1448 0,-1263 797,-2312 2059,-2312 398,0 848,120 1301,293l319 -1515c-517,-186 -1130,-318 -1740,-318 -2084,0 -3867,1553 -3867,3944 0,1966 1210,2896 2951,2896 583,0 1074,-106 1434,-254l344 -1553c-398,145 -836,267 -1354,267zm-9178 1418l732 -3358c294,-1354 956,-1820 1647,-1820 890,0 995,665 822,1422l-797 3756 1900 0 838 -3850c410,-1924 -480,-2935 -1873,-2935 -773,0 -1515,306 -2151,984l172 -785 -1767 0 -1421 6586 1898 0zm-6824 -1898c0,-662 586,-1036 1553,-1036 186,0 598,15 970,68l-79 372c-226,782 -864,1314 -1620,1314 -545,0 -824,-266 -824,-718zm1834 -4847c-877,0 -1768,200 -2060,293l-317 1526c424,-119 1261,-343 2003,-343 997,0 1355,305 1355,821 0,95 0,200 -26,306l-28 132c-476,-53 -927,-92 -1142,-92 -1885,0 -3398,730 -3398,2457 0,1128 875,1807 2018,1807 810,0 1500,-319 1952,-851l-145 689 1685 0 823 -3771c68,-279 94,-569 94,-848 0,-1129 -625,-2126 -2814,-2126zm-9204 6745l731 -3358c292,-1354 954,-1820 1646,-1820 890,0 997,665 824,1422l-798 3756 1898 0 838 -3850c411,-1924 -478,-2935 -1872,-2935 -770,0 -1513,306 -2152,984l172 -785 -1767 0 -1419 6586 1899 0zm-3401 -8403c-39,596 401,1062 984,1062 650,0 1115,-466 1155,-1062 41,-599 -398,-1063 -982,-1063 -650,0 -1115,464 -1157,1063zm-264 1817l-1421 6586 1885 0 1422 -6586 -1886 0zm-5367 6586l745 -3438 2868 0 346 -1688 -2856 0 439 -2109 3015 0 371 -1688 -4980 0 -1885 8923 1937 0zm-1871 -5136l306 -1450 -2032 0 398 -1831 -1979 438 -1234 5630c-345,1593 531,2471 2124,2471 332,0 891,-66 1289,-201l318 -1447c-318,80 -716,159 -1063,159 -544,0 -929,-186 -796,-848l625 -2921 2044 0zm-7198 3198c0,532 -649,624 -1194,624 -692,0 -1461,-183 -1872,-318l-320 1487c598,145 1355,267 2073,267 1698,0 3079,-639 3079,-2232 0,-2059 -2470,-1699 -2470,-2615 0,-411 400,-559 1023,-559 598,0 1436,239 1714,320l319 -1502c-573,-158 -1249,-252 -1860,-252 -1845,0 -2961,825 -2961,2192 0,2004 2469,1673 2469,2588zm-7144 2139c2086,0 3492,-1515 3811,-3492 333,-1978 -769,-3494 -2855,-3494 -2084,0 -3492,1516 -3811,3494 -331,1977 770,3492 2855,3492zm175 -1528c-759,0 -1358,-597 -1076,-1964 276,-1368 941,-1966 1698,-1966 758,0 1355,611 1061,1966 -278,1353 -928,1964 -1683,1964zm-8008 -1394l835 0c2670,0 4157,-1314 4157,-3507 0,-1632 -1156,-2695 -3134,-2695l-2470 0 -1885 8923 1911 0 586 -2721zm330 -1632l624 -2935 797 0c877,0 1302,358 1302,1195 0,1074 -677,1740 -1925,1740l-798 0z"/>
			</g>
		</g>
	</g>
</svg>