<?xml version="1.0" encoding="UTF-8"?>
<!DOCTYPE svg PUBLIC "-//W3C//DTD SVG 1.1//EN" "http://www.w3.org/Graphics/SVG/1.1/DTD/svg11.dtd">
<svg xmlns="http://www.w3.org/2000/svg" xml:space="preserve" width="105px" height="70px" version="1.1" shape-rendering="geometricPrecision" text-rendering="geometricPrecision" image-rendering="optimizeQuality" fill-rule="evenodd" clip-rule="evenodd" viewBox="0 0 105000 70004" xmlns:xlink="http://www.w3.org/1999/xlink">
 <g>
  <path fill="#FA82A0" fill-rule="nonzero" d="M105000 65350c0,2558 -2091,4654 -4651,4654l-95702 0c-2556,0 -4647,-2096 -4647,-4654l0 -60698c0,-2561 2092,-4652 4647,-4652l95702 0c2561,0 4651,2092 4651,4652l0 60698z"/>
  <path fill="#FFFFFF" fill-rule="nonzero" d="M64635 31864c-570,6823 -3740,11070 -11247,11046 -4691,-28 -8697,-3053 -9624,-7563l1134 1123c1353,1306 3501,1272 4813,-69l144 -154c1054,-1088 1214,-2692 531,-3960 115,-61 230,-108 332,-182l173 -109c378,-258 688,-596 929,-969 514,269 1121,504 1856,703l2114 477c-1570,871 -2544,2521 -2669,5019 -23,419 303,775 716,791 417,23 773,-304 796,-716 102,-2258 990,-3484 2411,-4018 763,-286 1587,-342 2316,-262 97,10 159,18 189,23 975,184 1265,-1267 304,-1478l-5817 -1295c-881,-247 -1500,-521 -1946,-830 -70,-92 -161,-162 -266,-207 -675,-612 -709,-1381 -411,-2389 217,-734 669,-1111 1340,-1260 447,-98 946,-87 1421,0 132,22 235,44 276,56l8816 2059c60,10 98,22 173,56 144,64 299,172 446,327 596,636 918,1826 751,3781l-1 0zm-23472 -3981l154 -156c591,-613 1553,-681 2234,-167l2449 3634c663,980 1752,1501 2850,1489 615,733 591,1817 -90,2520l-143 150c-723,740 -1913,756 -2665,34l-4199 -4159c-1158,-1157 -1323,-2590 -590,-3346l0 1zm2864 -5851l165 -108c1112,-648 2059,-161 3033,1254l789 1181c22,41 47,74 69,109l1731 2571c-230,1186 -35,2236 773,3084 -143,239 -310,463 -544,624l-161 103c-870,584 -2045,360 -2629,-504l-3305 -4916c-906,-1364 -787,-2808 79,-3398l0 0zm5077 -15074c544,-114 1110,-5 1581,304 464,303 790,784 898,1330l2993 12788c12,47 33,84 57,120 11,39 29,74 44,102 30,46 57,87 98,120 34,35 68,76 109,104 34,16 69,35 103,51 40,24 76,52 121,64 16,6 34,0 56,6 22,4 41,4 63,4 88,7 168,7 242,-4l11 0c6,-6 11,-12 18,-12 91,-22 177,-63 245,-109 7,-6 18,-17 23,-22 69,-52 132,-116 171,-190 13,-12 13,-23 23,-35 30,-52 64,-97 81,-153l3766 -12909c320,-1199 1527,-1904 2707,-1606 1017,305 1647,1365 1417,2424l-3254 16209 -5849 -1363c-57,-18 -203,-53 -397,-86 -652,-115 -1340,-132 -2011,16 -796,179 -1455,603 -1919,1243l-1095 -1634 -1695 -13967 -17 -92c-298,-1175 436,-2498 1410,-2704l0 1zm15887 20100c-504,-539 -1035,-779 -1438,-836l-1404 -329 3261 -16248c395,-1822 -688,-3655 -2493,-4187 -2018,-512 -4039,673 -4567,2651l-2955 10148 -2339 -9981c-178,-917 -734,-1748 -1541,-2282 -802,-525 -1788,-709 -2726,-509 -1834,389 -3037,2533 -2574,4492l1369 11293c-1191,-1186 -2590,-1565 -4187,-631l-213 138c-1479,1015 -1759,3059 -808,4934 -784,39 -1564,360 -2153,968l-145 154c-1363,1397 -1092,3758 603,5465l1391 1370c167,6238 5176,10634 11151,10743 22,0 33,6 51,12 34,0 69,-6 109,-6 23,0 46,6 68,6 12,0 19,-6 29,-12 8366,-5 12032,-4933 12663,-12422 200,-2348 -241,-3959 -1152,-4933l0 2z"/>
  <path fill="#FFFFFF" fill-rule="nonzero" d="M29196 62214c2647,0 4671,-1792 4671,-4431 0,-2441 -1712,-3505 -3814,-4135 -1344,-394 -2181,-689 -2181,-1654 0,-808 584,-1438 1499,-1438 779,0 1363,453 1771,1143l2200 -1398c-681,-1537 -2219,-2325 -3893,-2325 -2647,0 -4321,1930 -4321,4156 0,1772 1051,3151 3659,3919 1421,413 2317,689 2317,1831 0,1063 -760,1733 -1869,1733 -1188,0 -2083,-768 -2628,-1477l-1830 1871c974,1339 2570,2205 4419,2205zm10699 0c-2803,0 -5080,-2264 -5080,-5021 0,-2757 2277,-5022 5080,-5022 2803,0 5080,2265 5080,5022 0,2757 -2277,5021 -5080,5021zm0 -2520c1363,0 2433,-1084 2433,-2501 0,-1418 -1070,-2501 -2433,-2501 -1363,0 -2433,1083 -2433,2501 0,1417 1070,2501 2433,2501zm11634 -9000l0 -2521 -389 0c-3232,0 -4809,2167 -4809,4727l0 9058 2648 0 0 -3977c0,-1320 1012,-2265 2472,-2305l0 -2560c-1051,0 -1888,315 -2472,946l0 -1024c0,-1655 1070,-2403 2550,-2344zm5774 11520c-2803,0 -5080,-2264 -5080,-5021 0,-2757 2277,-5022 5080,-5022 2803,0 5081,2265 5081,5022 0,2757 -2278,5021 -5081,5021zm0 -2520c1363,0 2434,-1084 2434,-2501 0,-1418 -1071,-2501 -2434,-2501 -1362,0 -2433,1083 -2433,2501 0,1417 1071,2501 2433,2501zm9084 -6184l0 -1083 -2570 0 0 9531 2648 0 0 -4352c0,-1575 915,-2461 2511,-2461l0 -2876c-1207,-39 -2063,375 -2589,1241zm6748 3584l0 -2324c584,631 1421,946 2472,946l0 -2560c-1440,-40 -2472,-1004 -2472,-2304l0 -1497 -2647 0 0 7877c0,2560 1576,4726 4807,4726l390 0 0 -2520c-1480,59 -2550,-689 -2550,-2344zm5716 5022c973,0 1771,-807 1771,-1792 0,-985 -798,-1792 -1771,-1792 -974,0 -1771,807 -1771,1792 0,985 797,1792 1771,1792z"/>
 </g>
</svg>
