<?xml version="1.0" encoding="UTF-8"?>
<!DOCTYPE svg PUBLIC "-//W3C//DTD SVG 1.1//EN" "http://www.w3.org/Graphics/SVG/1.1/DTD/svg11.dtd">
<svg xmlns="http://www.w3.org/2000/svg" xml:space="preserve" width="112px" height="70px" version="1.1" shape-rendering="geometricPrecision" text-rendering="geometricPrecision" image-rendering="optimizeQuality" fill-rule="evenodd" clip-rule="evenodd" viewBox="0 0 100000 62551"  xmlns:xlink="http://www.w3.org/1999/xlink">
	<g>
		<g>
			<path fill="#DF2D32" fill-rule="nonzero" d="M19580 0l24961 0c3484,0 5650,2839 4837,6335l-11619 49885c-819,3497 -4306,6331 -7788,6331l-24964 0c-3486,0 -5650,-2834 -4835,-6331l11625 -49885c812,-3496 4293,-6335 7783,-6335z"/>
			<path fill="#004889" fill-rule="nonzero" d="M42471 0l24956 0c3486,0 5660,2839 4836,6335l-11620 49885c-820,3497 -4302,6331 -7793,6331l-24956 0c-3492,0 -5653,-2834 -4836,-6331l11621 -49885c814,-3496 4305,-6335 7792,-6335z"/>
			<path fill="#007F89" fill-rule="nonzero" d="M70039 0l24950 0c3491,0 5657,2839 4836,6335l-11615 49885c-816,3497 -4305,6331 -7794,6331l-24964 0c-3487,0 -5649,-2834 -4834,-6331l11618 -49885c821,-3496 4307,-6335 7803,-6335z"/>
			<path fill="white" d="M73754 36836l-2353 10060 813 0 -493 2091 -818 0 -149 639 -2892 0 148 -639 -5880 0 463 -1927 600 -9 2391 -10215 474 -2066 2956 0 -231 1045c0,0 744,-573 1471,-764 737,-188 5012,-266 5012,-266l-493 2051 -1019 0zm18614 -14619l-124 -143c-1547,323 -1830,371 -3254,560l-106 100c-5,21 -5,44 -10,69l-13 -20c-1063,2452 -1030,1922 -1888,3842 -3,-85 -7,-153 -7,-234l-220 -4174 -134 -143c-1621,323 -1664,371 -3158,560l-119 100c-10,54 -18,107 -26,165l16 18c184,962 139,752 325,2259 83,738 202,1491 285,2225 155,1217 237,1836 414,3689 -1009,1680 -1251,2312 -2214,3784l0 2 -693 1090c-74,117 -144,193 -244,231 -105,42 -260,62 -456,62l-523 0 -442 1966 1955 -26c1135,-10 1860,-573 2247,-1281l1198 -2090 7191 -12611zm-52995 1030c829,-573 936,-1375 232,-1791 -707,-409 -1949,-280 -2787,290 -834,575 -926,1378 -226,1794 703,415 1948,284 2781,-293zm30709 -2637c-224,999 -868,1838 -1701,2249 -694,346 -1527,376 -2401,376l-563 0 46 -227c0,0 1032,-4498 1030,-4482l33 -229 17 -182 414 41c0,0 2126,189 2185,199 832,324 1192,1164 940,2255zm-1359 -4696c-4,0 -1043,22 -1043,22 -2712,29 -3803,23 -4252,-35 -38,195 -111,548 -111,548 0,0 -965,4508 -965,4512 0,0 -2331,9583 -2438,10035 2363,-33 3337,-35 3743,10 97,-454 647,-3123 654,-3130 0,0 470,-1964 500,-2026 0,0 139,-209 295,-289l213 0c2037,0 4352,0 6163,-1333 1224,-904 2068,-2250 2446,-3886 93,-406 166,-886 166,-1366 0,-621 -124,-1248 -492,-1742 -919,-1282 -2750,-1298 -4879,-1320zm-10877 15036c-1263,-12 -1691,-12 -3164,51l-60 -99c131,-562 270,-1113 404,-1678l172 -760c269,-1194 542,-2565 572,-2987 26,-257 107,-889 -613,-889 -303,0 -626,146 -946,290 -175,630 -537,2410 -710,3218 -351,1711 -384,1902 -540,2743l-111 111c-1287,-12 -1735,-12 -3222,51l-69 -113c245,-1021 497,-2035 723,-3053 631,-2746 777,-3794 952,-5183l118 -96c1450,-195 1800,-242 3374,-568l128 147 -237 886c262,-162 525,-318 796,-465 737,-359 1561,-472 2011,-472 687,0 1445,197 1760,990 300,707 104,1580 -293,3310l-199 871c-413,1920 -473,2277 -697,3584l-149 111zm19096 -2251c-260,365 -873,593 -1219,593 -98,0 -722,0 -732,-912 -8,-449 83,-914 197,-1424 333,-1439 724,-2658 1716,-2658 650,0 960,633 874,1666 -49,232 -91,441 -154,718 -106,449 -235,890 -343,1340 -102,263 -211,511 -339,677zm4972 -6466c-1571,286 -1985,351 -3492,561l-119 93c-17,126 -36,245 -50,366 -235,-381 -561,-719 -1088,-919 -678,-263 -2252,78 -3591,1310 -962,881 -1413,2081 -1681,3232 -267,1166 -583,3300 1368,4065 611,255 1179,333 1738,300 602,-28 1150,-344 1663,-775 -47,182 -94,366 -136,553l83 111c1406,-66 1835,-66 3353,-46l144 -116c215,-1296 429,-2559 1007,-5054 272,-1189 560,-2370 846,-3553l-45 -128zm-32647 4398c445,-1935 106,-2838 -331,-3385 -656,-836 -1805,-1111 -3007,-1111 -717,0 -2426,80 -3767,1319 -959,887 -1413,2096 -1676,3255 -275,1179 -585,3322 1366,4097 608,258 1477,339 2030,339 1439,0 2908,-401 4006,-1584 857,-930 1243,-2349 1379,-2930zm-3280 -144c-70,324 -349,1545 -744,2060 -258,374 -583,599 -930,599 -100,0 -722,0 -733,-919 -9,-450 78,-919 196,-1434 335,-1449 723,-2676 1713,-2676 792,0 837,903 498,2370zm-7990 4463c-762,-7 -1244,-9 -1722,-4 -469,4 -933,22 -1639,55l-37 -58 -43 -55c189,-730 293,-983 389,-1240 95,-258 184,-515 355,-1255 220,-954 357,-1633 455,-2214 96,-580 158,-1063 228,-1621l62 -48 54 -50c759,-101 1236,-170 1722,-253 489,-75 986,-166 1769,-312l28 64 27 67c-151,598 -295,1196 -437,1795 -140,597 -282,1199 -418,1794 -290,1266 -397,1742 -463,2068 -62,326 -80,500 -191,1156l-68 56 -71 55zm-5103 0c-1257,-12 -1693,-12 -3160,51l-64 -99c129,-562 273,-1113 405,-1678l169 -760c275,-1194 544,-2565 570,-2987 28,-257 109,-889 -608,-889 -303,0 -628,146 -952,290 -172,630 -532,2410 -699,3218 -361,1711 -392,1902 -548,2743l-111 111c-1290,-12 -1737,-12 -3224,51l-63 -113c242,-1021 489,-2035 724,-3053 628,-2746 772,-3794 945,-5183l118 -96c1456,-195 1800,-242 3383,-568l124 147 -240 886c264,-162 528,-318 801,-465 737,-359 1562,-472 2012,-472 684,0 1438,197 1754,990 308,707 104,1580 -295,3310l-197 871c-407,1920 -473,2277 -695,3584l-149 111zm-10355 -15018c-98,446 -1829,8431 -1833,8440 -376,1607 -649,2769 -1561,3513 -537,428 -1141,639 -1846,639 -1135,0 -1804,-568 -1920,-1638l-26 -366c0,0 353,-2164 357,-2174 0,0 1820,-7285 2144,-8250 11,-57 16,-84 29,-115 -3540,44 -4171,11 -4214,-52 -17,78 -114,531 -114,531l-1858 8209 -161 697 -298 2273c0,679 126,1229 397,1688 843,1484 3256,1704 4623,1704 1751,0 3398,-381 4518,-1049 1927,-1149 2439,-2945 2891,-4523l207 -817c0,0 1876,-7565 2198,-8550 11,-58 16,-80 24,-111 -2561,39 -3315,6 -3557,-49zm38567 27091l-177 1230c-96,378 -165,667 -435,921 -291,259 -639,526 -1465,526l-1539 58 68 1386c13,402 111,358 177,422 76,71 142,98 211,116l490 -18 1461 -91 -475 2033 -1687 0c-1192,0 -2075,-36 -2373,-251 -296,-196 -349,-422 -361,-797l-231 -5411 2697 0 35 1106 647 0c227,0 370,-23 465,-82 73,-54 124,-150 169,-287l196 -861 2127 0zm-8617 -8247l2787 0 -324 1405c0,0 836,-704 1439,-939 596,-237 1972,-437 1972,-437l4497 -29 -1217 5104c-212,876 -470,1443 -641,1702 -160,254 -342,482 -719,700 -369,196 -708,310 -1026,342 -300,26 -754,33 -1380,40l-4331 0 -967 4043c-103,402 -141,588 -60,697 73,93 225,204 431,204l1896 -182 -514 2217 -2147 0c-673,0 -1173,-10 -1514,-43 -337,-25 -682,0 -919,-181 -210,-175 -526,-399 -533,-639 7,-220 71,-584 182,-1078l3088 -12926zm6225 5167l-4552 0 -222 917 3941 0c465,-48 566,13 599,-5l234 -912zm-4357 -828c0,0 837,-815 2344,-1083 348,-63 2521,-46 2521,-46l255 -1088 -4590 0 -530 2217zm-6463 -3264l3269 0 -474 1979 -4463 0 -455 426c-195,195 -273,115 -533,256 -248,132 -760,379 -1447,379l-1424 0 457 -1907 425 0c365,0 613,-35 733,-115 133,-81 284,-288 440,-617l730 -1489 3244 0 -502 1088zm-5146 3408l7954 0 -455 1902 -3200 0 -380 1618 3241 0 -473 1964 -3248 0 -623 2617c-79,297 795,339 1105,339l1611 -217 -521 2157 -3662 0c-293,0 -516,-33 -841,-110 -317,-78 -459,-220 -614,-429 -142,-207 -358,-386 -247,-841l835 -3486 -1807 0 479 -1994 1816 0 381 -1618 -1810 0 459 -1902zm33215 4729l-3010 0 404 -1730 3429 0 381 -1580 -3384 0 453 -1942 9430 0 -463 1942 -3160 0 -386 1580 3172 0 -408 1730 -3427 0 -566 724 1392 0 493 2179c42,212 62,354 139,444 67,76 492,116 735,116l421 0 -495 2124 -1070 0c-165,0 -418,-10 -756,-38 -322,-22 -565,-211 -792,-313 -205,-97 -513,-341 -611,-739l-479 -2172 -1407 2143c-462,664 -1096,1180 -2222,1180l-2194 0 445 -1881 841 0c236,0 451,-98 598,-175 156,-76 288,-154 441,-383l2056 -3209zm-538 -9198l3151 0 35 1172c-21,190 152,283 517,290l534 0 -475 1944 -1704 0c-1476,104 -2035,-530 -1995,-1245l-63 -2161zm-6877 2046l-599 2572c0,0 844,-396 1318,-524 470,-128 1196,-180 1196,-180l435 -1868 -2350 0zm-906 3857l-624 2666c0,0 861,-460 1337,-586 470,-125 1195,-209 1195,-209l449 -1871 -2357 0zm-1456 6236l2351 0 528 -2267 -2350 0 -529 2267z"/>
		</g>
	</g>
</svg>