<?xml version="1.0" encoding="UTF-8"?>
<!DOCTYPE svg PUBLIC "-//W3C//DTD SVG 1.1//EN" "http://www.w3.org/Graphics/SVG/1.1/DTD/svg11.dtd">
<svg xmlns="http://www.w3.org/2000/svg" viewBox="0 0 1920.01 620.08" width="110px" height="70px"><defs><style>.cls-1{fill:#1434cb;}</style></defs><g id="Layer_2" data-name="Layer 2"><g id="Layer_1-2" data-name="Layer 1"><path class="cls-1" d="M729,11,477.63,610.7h-164L189.93,132.08c-7.51-29.48-14-40.28-36.88-52.7-37.29-20.23-98.87-39.21-153-51L3.68,11h264c33.65,0,63.9,22.4,71.54,61.15l65.33,347L566,11Zm642.58,403.93c.66-158.29-218.88-167-217.37-237.72.47-21.52,21-44.4,65.81-50.24,22.23-2.91,83.48-5.13,153,26.84l27.25-127.18C1362.89,13,1314.86,0,1255.1,0,1101.75,0,993.83,81.52,992.92,198.25c-1,86.34,77,134.52,135.81,163.21,60.47,29.38,80.76,48.26,80.53,74.54-.43,40.23-48.23,58-92.9,58.69-78,1.2-123.23-21.1-159.3-37.87L928.94,588.21c36.25,16.63,103.16,31.14,172.53,31.87,163,0,269.61-80.51,270.11-205.19M1776.52,610.7H1920L1794.76,11H1662.32a70.59,70.59,0,0,0-66,44L1363.49,610.7H1526.4l32.34-89.58h199ZM1603.41,398.2,1685.07,173l47,225.18ZM950.67,11,822.38,610.7H667.24L795.58,11Z"/></g></g></svg>